<?xml version="1.0" encoding="utf-8"?>
<!-- Generator: Adobe Illustrator 28.0.0, SVG Export Plug-In . SVG Version: 6.00 Build 0)  -->
<svg version="1.1" id="Calque_1" xmlns="http://www.w3.org/2000/svg" xmlns:xlink="http://www.w3.org/1999/xlink" x="0px" y="0px"
	 viewBox="0 0 1449.83 1449.83" style="enable-background:new 0 0 1449.83 1449.83;" xml:space="preserve">
<style type="text/css">
	.st0{fill:#FFFFFF;}
	.st1{fill:none;stroke:#000000;stroke-width:28;stroke-miterlimit:10;}
	.st2{font-family:'SnvD-Regu';}
	.st3{font-size:304.2055px;}
	.st4{fill:#918F90;}
</style>
<path id="fond" class="st0" d="M1228.91,1401.91h-951c-27.61,0-50-22.39-50-50v-1239c0-27.61,22.39-50,50-50h951
	c27.61,0,50,22.39,50,50v1239C1278.91,1379.53,1256.53,1401.91,1228.91,1401.91z"/>
<path id="contour" class="st1" d="M1224.91,1362.91h-943c-8.28,0-15-6.72-15-15v-1231c0-8.28,6.72-15,15-15h943
	c8.28,0,15,6.72,15,15v1231C1239.91,1356.2,1233.2,1362.91,1224.91,1362.91z"/>
<text transform="matrix(1 0 0 1 451.9135 366.4843)" class="st2 st3">Zone</text>
<g id="pietons_00000095320015987425378990000009110096886658228871_">
	
		<rect id="fond_00000032628741022624383340000009625481148632159416_" x="430.91" y="409.91" class="st4" width="645" height="645"/>
	<path id="pietons_00000165203402914513859560000011711321776112396451_" class="st0" d="M640.91,581.91
		c-16.27,0.27-26.66,5.58-32,9c-25.39,16.28-29.84,49.76-32,66c-1.31,9.88-1.28,18.21-1,24c0.65,19.38,2.45,40.5,6,63
		c1.48,9.36,1,19,5,33c0.06,0.24,0.5,1.17,1.24,2.68c8.32,16.79,33.76,8.01,29.99-10.34c-0.01-0.06-0.02-0.11-0.03-0.15
		c-1.92-9.33-3.28-23.24-4.2-29.19c-2.87-18.58-4.38-36.01-5-52c-0.23-10.25,0.36-18.78,1-25c1.44-13.92,2.44-22.68,8-32
		c3.37-5.65,7.26-9.58,10-12v326.35c0,1.1,0.04,2.19,0.13,3.29l0.21,2.69c2.39,30.44,47,30.45,49.4,0.01l0.13-1.69
		c0.09-1.1,0.13-2.2,0.13-3.3l0-184.94c0-0.92,0.23-1.83,0.67-2.64l0.13-0.24c2.24-4.11,8.16-4.11,10.4,0.01l0.06,0.11
		c0.48,0.88,0.73,1.87,0.73,2.87v161.34l0,0c1.57,32.23,49.13,32.37,50.89,0.15l0.11-2.02V647.52c0-2.93,4.12-3.57,5-0.77
		c1.3,4.11,3,8.17,4,11.17c2.51,7.54,8.54,20.28,13,53c1.6,11.71,3.24,26.97,4,45c0.1,2.28,1.02,7.35,5,11c3.69,3.38,8.43,3.92,11,4
		c0.68,0.03,1.34,0.02,2,0c9.88-0.37,17.96-6.24,23.72-12.14c1.56-1.61,4.28-0.49,4.28,1.75l0,173.39l0,0
		c2.34,18.09,28.49,18.2,30.98,0.13l0.02-0.13l0-87.47c0-0.99,0.36-1.95,1.01-2.69l0.1-0.12c1.68-1.93,4.68-1.92,6.33,0.02
		l0.04,0.05c0.66,0.77,1.01,1.72,1.01,2.72c0.01,13.64,0.01,113.48,0.01,113.48l0,0c2.27,18.52,29.09,18.6,31.47,0.1l0.13-1V806.84
		c0-1.42,1.92-1.85,2.52-0.56l14.38,31.47c0.65,1.42,1.67,2.65,2.95,3.55l0.52,0.37c10.7,7.53,25.51,0.39,26.28-12.68l0.12-1.98
		c0.08-1.37-0.16-2.74-0.7-4l-39.05-90.84c-3.72-8.64-12.22-14.24-21.63-14.24h-46.03c-4.92,0-9.77,1.09-14.21,3.2l-8.76,4.15
		c-1.69,0.8-3.66-0.31-3.85-2.17c-2.46-24.62-7.41-44.39-11.64-58.17c-9.68-31.55-21.14-67.19-51-80l-0.11-0.05
		c-4.55-1.95-9.46-2.95-14.41-2.95H640.91z"/>
	<circle id="tete_a_00000020365832876503041400000001886215694735288249_" class="st0" cx="684.41" cy="519.91" r="47"/>
	<circle id="tete_e_00000119816523005814648200000012905700269592865687_" class="st0" cx="847.91" cy="671.91" r="37"/>
</g>
<path id="barre" d="M1224.91,115.91h-81.18L280.91,1242.07v105.84c0,0.55,0.45,1,1,1h80.91L1225.91,222.4V116.91
	C1225.91,116.36,1225.46,115.91,1224.91,115.91z"/>
</svg>
