<?xml version="1.0" encoding="utf-8"?>
<!-- Generator: Adobe Illustrator 28.0.0, SVG Export Plug-In . SVG Version: 6.00 Build 0)  -->
<svg version="1.1" id="Calque_1" xmlns="http://www.w3.org/2000/svg" xmlns:xlink="http://www.w3.org/1999/xlink" x="0px" y="0px"
	 viewBox="0 0 1500 1500" style="enable-background:new 0 0 1500 1500;" xml:space="preserve">
<style type="text/css">
	.st0{fill:#005B8C;}
	.st1{fill:none;stroke:#FFFFFF;stroke-width:23;stroke-miterlimit:10;}
	.st2{fill:#BB1E10;}
	.st3{fill:none;stroke:#FFFFFF;stroke-width:32;stroke-linecap:round;stroke-miterlimit:10;}
	.st4{fill:#FFFFFF;}
	.st5{fill:none;stroke:#FFFFFF;stroke-width:53;stroke-linecap:round;stroke-miterlimit:10;}
</style>
<path id="fond" class="st0" d="M1159.5,1500h-818c-50.3,0-91-40.7-91-91V91c0-50.3,40.7-91,91-91h818c50.3,0,91,40.7,91,91v1318
	C1250.5,1459.3,1209.7,1500,1159.5,1500z"/>
<path id="contour" class="st1" d="M1146.5,1462h-792c-36.5,0-66-29.5-66-66V104c0-36.5,29.5-66,66-66h792c36.5,0,66,29.5,66,66v1292
	C1212.5,1432.5,1182.9,1462,1146.5,1462z"/>
<path id="voiture" class="st2" d="M1153.7,860.2c-0.1-16.2-5.5-32-15.2-45c-5.9-8-12.4-17.4-18.9-28c-18.3-30.1-27.3-54.5-33.9-71.5
	c-10.9-28.2-27.9-68.9-53.9-120.3c-1.7-3.3-6.1-10.9-15.4-16.6c-6.5-3.9-14-6.2-21.9-6.2c-81.4-0.3-162.8-0.7-244.2-1
	c-81.4,0.3-162.8,0.7-244.2,1c-7.9,0-15.4,2.2-21.9,6.2c-9.2,5.6-13.7,13.3-15.4,16.6c-26,51.4-43,92-53.9,120.3
	c-6.6,17-15.5,41.4-33.9,71.5c-6.5,10.7-13,20-18.9,28c-9.7,13.1-15.1,28.8-15.2,45L346.3,991c0,22.4,18.4,40.6,41,40.6h6.4v86.7
	c0,15,12.3,27.2,27.5,27.2H478c15.2,0,27.5-12.2,27.5-27.2v-86.7h245h245v86.7c0,15,12.3,27.2,27.5,27.2h56.8
	c15.2,0,27.5-12.2,27.5-27.2v-86.7h6.4c22.7,0,41-18.2,41-40.6L1153.7,860.2z M507.7,617.4l242.7,0.7l242.7-0.7l74.9,170.3H750.5
	H432.8L507.7,617.4z M450.1,952.3c-34.3,0-62.1-27.5-62.1-61.4c0-33.9,27.8-61.4,62.1-61.4c34.3,0,62.1,27.5,62.1,61.4
	C512.2,924.8,484.4,952.3,450.1,952.3z M891.6,927.8H750.5H609.3V901h141.1h141.1V927.8z M891.6,880.9H750.5H609.3v-26.8h141.1
	h141.1V880.9z M1050.8,952.3c-34.3,0-62.1-27.5-62.1-61.4c0-33.9,27.8-61.4,62.1-61.4c34.3,0,62.1,27.5,62.1,61.4
	C1112.9,924.8,1085.1,952.3,1050.8,952.3z"/>
<g id="velo">
	<line class="st3" x1="749.8" y1="889.8" x2="749.8" y2="1243.4"/>
	<path class="st4" d="M781.2,783.5c-0.8,1.4-1.1,3.1-0.9,4.7l10.1,72.5c1.8,14.6,2.6,29.4,2.4,44.1l-4,219.3
		c-0.3,15.8,12.3,28.8,28.1,29.1c0.2,0,0.4,0,0.5,0c15.6,0,28.3-12.5,28.6-28.1l4-219.3c0.3-17.4-0.6-35-2.8-52.3l-17.6-154.6
		L781.2,783.5z"/>
	<line class="st5" x1="672.7" y1="735.9" x2="674.3" y2="975.2"/>
	<path class="st4" d="M926.8,667.5L838,429.8c-1.2-3.1-2.8-6.1-4.8-8.7l-0.9-1.2c-2.7-3.6-6-6.6-9.8-8.8c-5-3-10.8-4.7-16.7-4.9
		l-55.3-0.6l-55.3,0.6c-5.9,0.2-11.6,1.9-16.7,4.9c-3.8,2.3-7.2,5.3-9.8,8.8l-0.9,1.2c-2,2.7-3.6,5.6-4.8,8.7l-88.7,237.6
		c-4.5,12.5,1.9,26.3,14.4,30.8c2.7,1,5.5,1.5,8.2,1.5c9.8,0,19-6.1,22.6-15.8l2.1-5.8h115.6v26.1h26.7v-26.1h115.6l2.1,5.8
		c3.6,9.8,12.8,15.8,22.6,15.8c2.7,0,5.5-0.5,8.2-1.5C924.9,693.7,931.3,679.9,926.8,667.5z M683.6,614.9c-0.4,9.8-1.7,19.6-4,29.2
		l-3.2,13.5c-0.3,1.4-1.6,2.3-3,2.3h-45.3l54.3-148.4c0.8-2.3,4.2-1.6,4.1,0.8L683.6,614.9z M827.5,659.9c-1.4,0-2.6-1-3-2.3
		l-3.2-13.5c-2.3-9.6-3.6-19.4-4-29.2l-2.9-102.5c-0.1-2.4,3.3-3.1,4.1-0.8l54.3,148.4H827.5z"/>
	<circle class="st4" cx="750.5" cy="746.1" r="28.7"/>
	<circle class="st4" cx="750.5" cy="317.8" r="61.2"/>
</g>
<g id="C43_00000177442810309746231000000000743795104808292014_">
	<g id="rouge_00000077312048245388812690000013214378719668637595_">
		<circle class="st2" cx="1018.3" cy="1267.6" r="145"/>
		<path class="st4" d="M1018.3,1126.1c78.1,0,141.5,63.4,141.5,141.5c0,78.1-63.4,141.5-141.5,141.5c-78.1,0-141.5-63.4-141.5-141.5
			C876.8,1189.4,940.2,1126.1,1018.3,1126.1 M1018.3,1119.1c-39.7,0-77,15.4-105,43.5c-28,28-43.5,65.3-43.5,105s15.4,77,43.5,105
			c28,28,65.3,43.5,105,43.5c39.7,0,77-15.4,105-43.5s43.5-65.3,43.5-105s-15.4-77-43.5-105S1058,1119.1,1018.3,1119.1
			L1018.3,1119.1z"/>
	</g>
	<circle id="blanc_00000083800928098856692460000005150344580267419793_" class="st4" cx="1018.3" cy="1267.6" r="108"/>
	<g>
		<path d="M970.1,1224v28c4.9-2.3,9.6-3.5,14-3.5c4.4,0,8.6,1,12.6,2.9s7.2,4.6,9.7,7.9c3.4,4.5,5.1,10.2,5.1,17.1v21.7
			c0,7.8-2,14.2-6.1,19.4c-3,3.8-6.7,6.7-10.9,8.8c-4.3,2.1-8.7,3.1-13.4,3.1c-4.7,0-9.2-1.1-13.5-3.2c-4.3-2.1-8-5.1-11-8.9
			c-4.2-5.3-6.3-11.7-6.3-19.3v-4.4h17v4.4c0,4,0.8,7.4,2.4,10c2.4,4,6.2,5.9,11.4,5.9c4.5,0,8.1-1.7,10.8-5
			c1.7-2.1,2.5-4.9,2.5-8.2v-24.5c0-2.6-0.8-5-2.3-7.1c-2.7-3.7-6.5-5.6-11.3-5.6c-4.9,0-8.5,1.8-10.8,5.3h-17v-60.4h56.1v15.3
			H970.1z"/>
		<path d="M1030.9,1298.5V1238c0-6.3,1.6-11.9,4.7-16.8c2.8-4.4,6.7-7.8,11.6-10.4c4.7-2.6,9.6-3.8,14.7-3.8
			c7.6,0,14.3,2.5,20.1,7.6c6.7,6,10.1,13.8,10.1,23.5v60.5c0,7.2-2,13.4-6,18.8c-6,8.1-14.3,12.1-24.7,12.1
			c-9.3,0-17-3.5-23.1-10.4C1033.4,1313.4,1030.9,1306.6,1030.9,1298.5z M1075.1,1298.5v-62.3c0-2.6-0.8-5.1-2.3-7.7
			c-2.5-4.1-6.2-6.2-11.2-6.2c-5,0-8.9,2.1-11.7,6.3c-1.4,2.1-2.1,4.6-2.1,7.6v64.1c0,3,1,5.8,3,8.4c2.7,3.7,6.3,5.5,10.8,5.5
			c5.2,0,9-2.3,11.6-7C1074.5,1304.9,1075.1,1302,1075.1,1298.5z"/>
	</g>
</g>
</svg>
