<?xml version="1.0" encoding="utf-8"?>
<!-- Generator: Adobe Illustrator 28.0.0, SVG Export Plug-In . SVG Version: 6.00 Build 0)  -->
<svg version="1.1" id="Calque_1" xmlns="http://www.w3.org/2000/svg" xmlns:xlink="http://www.w3.org/1999/xlink" x="0px" y="0px"
	 viewBox="0 0 1449.83 1449.83" style="enable-background:new 0 0 1449.83 1449.83;" xml:space="preserve">
<style type="text/css">
	.st0{fill:#005B8C;}
	.st1{fill:none;stroke:#FFFFFF;stroke-width:22;stroke-miterlimit:10;}
	.st2{fill:#FFFFFF;}
	.st3{fill:#BB1E10;}
</style>
<path id="fond" class="st0" d="M1198.91,1409.98h-948c-35.9,0-65-29.1-65-65v-1242c0-35.9,29.1-65,65-65h948c35.9,0,65,29.1,65,65
	v1242C1263.91,1380.88,1234.81,1409.98,1198.91,1409.98z"/>
<path id="contour" class="st1" d="M1192.7,1368.98H257.13c-16.57,0-30-13.43-30-30v-1230c0-16.57,13.43-30,30-30h935.57
	c16.57,0,30,13.43,30,30v1230C1222.7,1355.55,1209.27,1368.98,1192.7,1368.98z"/>
<path id="velo" class="st2" d="M1070.52,691.35c-28.63-29.7-66.69-46.06-107.17-46.06c-25.29,0-49.63,6.38-71.31,18.41
	c-13.18-19.37-26.36-38.73-39.54-58.1c-2.98-4.38-3.6-10.04-1.64-15c7.7-19.49,15.4-38.98,23.1-58.47c0.44-1.1,1.47-1.82,2.62-1.82
	h32.97c1.47-0.3,5.28-1.29,8.55-4.78c4.07-4.33,4.53-9.53,4.61-10.92c-0.16-2-0.75-5.81-3.29-9.56c-4.76-7-12.48-8.03-13.82-8.19
	h-88.16c-1.08,0.07-8.02,0.66-12.5,6.83c-3.02,4.17-3.28,8.6-3.29,10.24c-0.03,1.37,0.01,6.83,3.95,11.6
	c3.18,3.85,7.09,5.08,8.55,5.46h20.88c1.99,0,3.36,2.07,2.64,3.99l-14.51,39.24c-1.47,3.97-5.15,6.59-9.25,6.59H600.17
	c-0.84,0-1.41-0.9-1.07-1.7l21.25-50.65c1.44-3.44,4.72-5.67,8.33-5.67h49.46c1.51,0,2.99-0.32,4.37-0.95c1.78-0.83,4-2.21,6-4.51
	c4.3-4.95,4.58-10.71,4.61-12.29c-0.14-1.8-0.68-5.67-3.29-9.56c-1.89-2.82-4.17-4.61-6.04-5.73c-1.61-0.96-3.44-1.43-5.3-1.43
	l-69.44,0.6c-5.48,0.05-10.42,3.44-12.6,8.67c-9.43,22.66-36.16,86.93-64.09,154.25c-14.09-4.41-28.88-6.7-44.01-6.7
	c-40.48,0-78.54,16.36-107.17,46.06c-28.63,29.7-44.39,69.19-44.39,111.19c0,42,15.76,81.49,44.39,111.19
	c28.63,29.7,66.69,46.06,107.17,46.06s78.54-16.36,107.17-46.06c28.63-29.7,44.39-69.19,44.39-111.19c0-42-15.76-81.49-44.39-111.19
	c-9.77-10.13-20.63-18.71-32.32-25.62l15-36.78c0.76-1.87,3.22-2.14,4.34-0.47l146.21,216.89c3.55,5.26,9.71,7.93,15.81,6.84
	l71.4-12.74c6.43,27.94,20.16,53.57,40.23,74.4c28.63,29.7,66.69,46.06,107.17,46.06s78.54-16.36,107.17-46.06
	c28.63-29.7,44.39-69.19,44.39-111.19C1114.91,760.54,1099.15,721.05,1070.52,691.35z M605.04,802.41
	c0,66.76-52.35,121.07-116.69,121.07s-116.69-54.31-116.69-121.07c0-66.76,52.35-121.07,116.69-121.07c10.4,0,20.49,1.43,30.09,4.09
	c-16.71,40.33-32.89,79.45-45.06,109.05c-2.77,7.64-1.85,15.6,2.63,20.48c2.12,2.31,4.62,3.48,6.58,4.1c1.91,0.56,5.91,1.43,10.53,0
	c8.64-2.67,12.03-11.08,12.5-12.29l43.83-107.46C582.78,720.64,605.04,758.87,605.04,802.41z M734.56,795.15L614.17,617h191.66
	L734.56,795.15z M764.16,813.58L833.9,636.8l31.46,45.78c-3.15,2.78-6.22,5.7-9.18,8.77c-28.63,29.7-44.39,69.19-44.39,111.19
	c0,0.96,0.02,1.91,0.03,2.86L764.16,813.58z M885.73,712.23l49.48,72.01l-88.51,15.19C847.55,764.81,862.47,733.77,885.73,712.23z
	 M963.35,923.61c-54.14,0-99.79-38.46-112.9-90.43l113.71-20.28l3.76-0.65c9.73-1.68,14.93-12.84,10.17-21.79l-0.77-1.45
	c-21.64-31.79-43.27-63.58-64.91-95.38c15.4-7.79,32.69-12.16,50.95-12.16c64.34,0,116.69,54.31,116.69,121.07
	C1080.05,869.3,1027.7,923.61,963.35,923.61z"/>
<g>
	<path class="st3" d="M257.17,1365.51c-13.92,0-25.25-11.33-25.25-25.25v-69.85l910.33-1185.4h50.49
		c13.92,0,25.25,11.33,25.25,25.25v69.04L307.04,1365.51H257.17z"/>
	<path class="st2" d="M1192.74,91.26c10.48,0,19,8.52,19,19v66.92L303.96,1359.26h-46.79c-10.48,0-19-8.52-19-19v-67.73
		L1145.33,91.26H1192.74 M1192.74,78.76h-47.41h-6.16l-3.75,4.89L228.26,1264.92l-2.59,3.37v4.25v67.73
		c0,17.37,14.13,31.5,31.5,31.5h46.79h6.16l3.75-4.89l907.79-1182.08l2.59-3.37v-4.25v-66.92
		C1224.24,92.89,1210.11,78.76,1192.74,78.76L1192.74,78.76z"/>
</g>
</svg>
