<?xml version="1.0" encoding="utf-8"?>
<!-- Generator: Adobe Illustrator 28.0.0, SVG Export Plug-In . SVG Version: 6.00 Build 0)  -->
<svg version="1.1" id="Calque_1" xmlns="http://www.w3.org/2000/svg" xmlns:xlink="http://www.w3.org/1999/xlink" x="0px" y="0px"
	 viewBox="0 0 1500 1500" style="enable-background:new 0 0 1500 1500;" xml:space="preserve">
<style type="text/css">
	.st0{fill:#005B8C;}
	.st1{fill:none;stroke:#FFFFFF;stroke-width:23;stroke-miterlimit:10;}
	.st2{fill:#BB1E10;}
	.st3{fill:none;stroke:#FFFFFF;stroke-width:32;stroke-linecap:round;stroke-miterlimit:10;}
	.st4{fill:#FFFFFF;}
	.st5{fill:none;stroke:#FFFFFF;stroke-width:53;stroke-linecap:round;stroke-miterlimit:10;}
</style>
<path id="fond" class="st0" d="M1159.5,1500h-818c-50.3,0-91-40.7-91-91V91c0-50.3,40.7-91,91-91h818c50.3,0,91,40.7,91,91v1318
	C1250.5,1459.3,1209.7,1500,1159.5,1500z"/>
<path id="contour" class="st1" d="M1146.5,1462h-792c-36.5,0-66-29.5-66-66V104c0-36.5,29.5-66,66-66h792c36.5,0,66,29.5,66,66v1292
	C1212.5,1432.5,1182.9,1462,1146.5,1462z"/>
<path id="voiture" class="st2" d="M1102.8,1001.1c-0.1-14.2-4.8-27.9-13.3-39.4c-5.2-7-10.8-15.2-16.5-24.5
	c-16-26.3-23.8-47.6-29.6-62.4c-9.5-24.7-24.4-60.2-47.1-105.1c-1.5-2.9-5.4-9.5-13.4-14.5c-5.6-3.4-12.2-5.4-19.1-5.4
	c-71.1-0.3-142.2-0.6-213.3-0.9c-71.1,0.3-142.2,0.6-213.3,0.9c-6.9,0-13.5,2-19.1,5.4c-8.1,4.9-12,11.6-13.4,14.5
	c-22.7,44.9-37.6,80.4-47.1,105.1c-5.7,14.9-13.6,36.2-29.6,62.4c-5.7,9.3-11.3,17.5-16.5,24.5c-8.5,11.4-13.1,25.2-13.3,39.4
	l-0.8,114.3c0,19.6,16.1,35.5,35.9,35.5h5.6v75.8c0,13.1,10.8,23.8,24,23.8h49.6c13.3,0,24-10.6,24-23.8v-75.8h214.1h214.1v75.8
	c0,13.1,10.8,23.8,24,23.8h49.6c13.3,0,24-10.6,24-23.8v-75.8h5.6c19.8,0,35.9-15.9,35.9-35.5L1102.8,1001.1z M538.4,789l212.1,0.6
	l212.1-0.6l65.4,148.8H750.5H473L538.4,789z M488.1,1081.6c-30,0-54.3-24-54.3-53.7c0-29.6,24.3-53.7,54.3-53.7
	c30,0,54.3,24,54.3,53.7C542.3,1057.6,518,1081.6,488.1,1081.6z M873.8,1060.2H750.5H627.2v-23.4h123.3h123.3V1060.2z M873.8,1019.2
	H750.5H627.2v-23.4h123.3h123.3V1019.2z M1012.9,1081.6c-30,0-54.3-24-54.3-53.7c0-29.6,24.3-53.7,54.3-53.7c30,0,54.3,24,54.3,53.7
	C1067.1,1057.6,1042.8,1081.6,1012.9,1081.6z"/>
<g id="velo">
	<line class="st3" x1="749.9" y1="1027" x2="749.9" y2="1336"/>
	<path class="st4" d="M777.3,934.1c-0.7,1.3-1,2.7-0.8,4.1l8.9,63.3c1.6,12.7,2.3,25.7,2.1,38.5l-3.5,191.6
		c-0.3,13.8,10.7,25.2,24.5,25.5c0.2,0,0.3,0,0.5,0c13.6,0,24.7-10.9,25-24.5l3.5-191.6c0.3-15.2-0.6-30.6-2.5-45.7l-15.3-135.1
		L777.3,934.1z"/>
	<line class="st5" x1="682.5" y1="892.5" x2="683.9" y2="1101.6"/>
	<path class="st4" d="M904.5,832.7L827,625.1c-1-2.7-2.4-5.3-4.2-7.6l-0.8-1.1c-2.3-3.1-5.3-5.7-8.6-7.7c-4.4-2.6-9.4-4.1-14.6-4.3
		l-48.4-0.5l-48.4,0.5c-5.1,0.2-10.1,1.6-14.6,4.3c-3.3,2-6.3,4.6-8.6,7.7l-0.8,1.1c-1.8,2.3-3.2,4.9-4.2,7.6l-77.5,207.6
		c-4,10.9,1.7,22.9,12.6,26.9c2.4,0.9,4.8,1.3,7.2,1.3c8.6,0,16.6-5.3,19.7-13.8l1.9-5.1h101v22.8h23.3V842h101l1.9,5.1
		c3.1,8.5,11.2,13.8,19.7,13.8c2.4,0,4.8-0.4,7.2-1.3C902.8,855.7,908.5,843.6,904.5,832.7z M692,786.8c-0.3,8.6-1.5,17.2-3.5,25.5
		l-2.8,11.8c-0.3,1.2-1.4,2.1-2.6,2.1h-39.6L691,696.5c0.7-2,3.7-1.4,3.6,0.7L692,786.8z M817.8,826.2c-1.2,0-2.3-0.8-2.6-2.1
		l-2.8-11.8c-2-8.4-3.1-16.9-3.5-25.5l-2.6-89.6c-0.1-2.1,2.9-2.7,3.6-0.7l47.4,129.6H817.8z"/>
	<circle class="st4" cx="750.5" cy="901.4" r="25.1"/>
	<circle class="st4" cx="750.5" cy="527.2" r="53.5"/>
</g>
<g>
	<path class="st4" d="M391.8,238.5v-132h81.1v21.9H416V159h38.1v21.9H416v57.5H391.8z"/>
	<path class="st4" d="M533.3,234.2c-6.6,2.9-12,4.3-16.1,4.3h-8.8c-8.3,0-14.8-2.3-19.4-7c-2.8-2.7-5-6-6.6-9.8
		c-1.6-3.8-2.5-7.5-2.5-11.1c0-7.3,3.1-13.7,9.2-19c5.5-4.8,11.5-7.2,18.1-7.2h10.1c4.6,0,7.9-0.6,9.9-1.7c3.4-1.9,5-5,5-9.4
		c0-3.7-1.6-6.9-4.7-9.4c-2.9-2.3-6.3-3.5-10.1-3.5c-7.2,0-12.4,3.9-15.5,11.7h-21.7c1.5-6.4,4.2-11.9,7.8-16.3
		c7.8-9.5,17.6-14.2,29.4-14.2c5.6,0,11,1.2,16.2,3.7c5.2,2.5,9.6,5.8,13.2,10.2c5.6,6.7,8.4,14.9,8.4,24.6v58.5h-21.9V234.2z
		 M533.3,197.6l-4.2,2.2c-4.3,2.3-8.3,3.4-12,3.5h-6.9c-2.5,0-4.6,0.8-6.2,2.4c-1.5,1.5-2.3,3.5-2.3,5.8c0,2.8,1.1,4.9,3.2,6.3
		c1.7,1.2,3.6,1.8,5.6,1.8h6.6c4.3,0,7.1-0.2,8.4-0.7c5.2-2.1,7.8-5.7,7.7-10.8V197.6z"/>
	<path class="st4" d="M580.5,238.5v-132h21.9v44.6c6-6.3,13.4-9.5,22.1-9.5c9.6,0,17.6,3.7,23.9,11.2c5,5.8,7.4,12.6,7.4,20.4v65.3
		H634v-61.4c0-4.4-1.1-8-3.4-10.8c-3-3.9-7.1-5.8-12.2-5.8c-5.4,0-9.7,2.2-12.9,6.5c-2.1,2.8-3.1,6.2-3.1,10.2v61.4H580.5z"/>
	<path class="st4" d="M681.3,238.5v-94h21.9v8.1c2.8-2.5,5.5-4.4,8.1-5.7c3.4-1.5,7.8-2.4,13.2-2.4h11.7v18.9h-12.1
		c-6.1,0-11,2-14.8,6c-4.1,4.2-6.1,9.4-6.2,15.7v53.5H681.3z"/>
	<path class="st4" d="M754.1,238.5v-94H776v8.1c2.8-2.5,5.5-4.4,8.1-5.7c3.4-1.5,7.8-2.4,13.2-2.4h11.7v18.9H797c-6.1,0-11,2-14.8,6
		c-4.1,4.2-6.1,9.4-6.2,15.7v53.5H754.1z"/>
	<path class="st4" d="M877.1,234.2c-6.6,2.9-12,4.3-16.1,4.3h-8.8c-8.3,0-14.8-2.3-19.4-7c-2.8-2.7-5-6-6.6-9.8
		c-1.6-3.8-2.5-7.5-2.5-11.1c0-7.3,3.1-13.7,9.2-19c5.5-4.8,11.5-7.2,18.1-7.2H861c4.6,0,7.9-0.6,9.9-1.7c3.4-1.9,5-5,5-9.4
		c0-3.7-1.6-6.9-4.7-9.4c-2.9-2.3-6.3-3.5-10.1-3.5c-7.2,0-12.4,3.9-15.5,11.7H824c1.5-6.4,4.2-11.9,7.8-16.3
		c7.8-9.5,17.6-14.2,29.4-14.2c5.6,0,11,1.2,16.2,3.7c5.2,2.5,9.6,5.8,13.2,10.2c5.6,6.7,8.4,14.9,8.4,24.6v58.5h-21.9V234.2z
		 M877.1,197.6l-4.2,2.2c-4.3,2.3-8.3,3.4-12,3.5h-6.9c-2.5,0-4.6,0.8-6.2,2.4c-1.5,1.5-2.3,3.5-2.3,5.8c0,2.8,1.1,4.9,3.2,6.3
		c1.7,1.2,3.6,1.8,5.6,1.8h6.6c4.3,0,7.1-0.2,8.4-0.7c5.2-2.1,7.8-5.7,7.7-10.8V197.6z"/>
	<path class="st4" d="M996.1,238.5h-21.9v-6.9c-6.1,6.3-13.4,9.5-22.1,9.5c-9.7,0-17.7-3.7-23.8-11.2c-5-6.1-7.5-13-7.5-20.7v-36.4
		c0-7.5,2.3-14.1,7-19.8c6.2-7.5,14.2-11.3,24.2-11.3c6,0,11.5,1.6,16.5,4.7c1.5,1,3.5,2.4,5.8,4.4v-44.2h21.9V238.5z M974.2,205.6
		v-29.2c0-3.6-0.9-6.7-2.7-9.2c-3.2-4.5-7.5-6.8-13.1-6.8c-5.6,0-10,2.3-13.1,6.9c-1.8,2.6-2.7,5.7-2.7,9.1v29.2c0,4,1,7.4,3.1,10.2
		c3.2,4.3,7.3,6.4,12.6,6.4c6.1,0,10.6-2.7,13.7-8C973.4,211.7,974.2,208.8,974.2,205.6z"/>
	<path class="st4" d="M1094.5,166.1v21.9h-56.6v-21.9H1094.5z"/>
	<path class="st4" d="M594.9,386.6h47.7v18.9h-75.4v-18.9l45.7-56.6h-44v-18.9h71.4v18.9L594.9,386.6z"/>
	<path class="st4" d="M663.6,369.8v-23c0-9.2,2.8-17.2,8.5-24.1c7.7-9.4,17.4-14.1,29.1-14.1c8.9,0,16.8,2.8,23.8,8.3
		c6.1,4.9,10.3,11.4,12.6,19.5c1,3.6,1.5,7.1,1.5,10.3v23c0,7.9-2.2,15.1-6.7,21.8c-3.4,4.8-7.6,8.7-12.9,11.7
		c-5.8,3.2-12,4.8-18.5,4.8c-9,0-17-2.9-24-8.8c-5.5-4.6-9.4-10.9-11.7-18.7C664.2,376.7,663.6,373.1,663.6,369.8z M717.1,372.4V344
		c0-4.4-1.4-8.2-4.3-11.3c-3.2-3.5-7.1-5.2-11.5-5.2c-5.3,0-9.6,2.3-12.9,6.8c-1.9,2.6-2.9,5.9-2.9,9.8v28.4c0,4.2,1.1,7.7,3.4,10.5
		c3.4,4.2,7.5,6.3,12.6,6.3c5.8,0,10.2-2.5,13.2-7.6C716.3,378.9,717.1,375.8,717.1,372.4z"/>
	<path class="st4" d="M762.5,405.5v-94.3h21.9v6.4c7.2-6,14.5-9,21.8-9c10.1,0,18.3,4.1,24.8,12.3c4.5,5.7,6.8,12.3,6.8,19.6v65
		h-21.9V344c0-4.4-1.3-8.1-4-11.2c-3-3.5-7-5.3-11.8-5.3c-6.1,0-10.6,2.5-13.6,7.4c-1.4,2.3-2.1,5.4-2.1,9.1v61.5H762.5z"/>
	<path class="st4" d="M881.5,365.9v7c0,4.3,1.2,7.8,3.7,10.7c3.2,3.7,7.1,5.6,11.8,5.6c5.9,0,10.5-2.9,13.6-8.6h22.5
		c-1.4,5.3-3.8,9.9-7.3,13.9c-7.9,9-17.5,13.5-28.8,13.5c-5.6,0-11-1.2-16.1-3.7c-5.2-2.4-9.5-5.9-13.1-10.2
		c-5.5-6.7-8.3-14.8-8.3-24.3v-22.8c0-9,2.5-16.9,7.5-23.6c7.3-9.7,17.2-14.6,29.8-14.6c6,0,11.7,1.3,17.1,4
		c5.4,2.6,9.8,6.3,13.2,10.8c3.1,4.3,5.3,9.4,6.8,15.5c0.6,2.9,1,5.5,1,7.9v18.9H881.5z M912.8,347.1v-2.8c0-3.7-1.2-7.2-3.6-10.3
		c-3.1-4.1-7.1-6.2-11.9-6.2c-5.7,0-10.2,2.6-13.3,7.8c-1.6,2.7-2.4,5.6-2.4,8.7v2.8H912.8z"/>
</g>
<g id="C43">
	<g id="rouge">
		<circle class="st2" cx="1018.3" cy="1267.6" r="145"/>
		<path class="st4" d="M1018.3,1126.1c78.1,0,141.5,63.4,141.5,141.5c0,78.1-63.4,141.5-141.5,141.5c-78.1,0-141.5-63.4-141.5-141.5
			C876.8,1189.4,940.2,1126.1,1018.3,1126.1 M1018.3,1119.1c-39.7,0-77,15.4-105,43.5c-28,28-43.5,65.3-43.5,105s15.4,77,43.5,105
			c28,28,65.3,43.5,105,43.5c39.7,0,77-15.4,105-43.5s43.5-65.3,43.5-105s-15.4-77-43.5-105S1058,1119.1,1018.3,1119.1
			L1018.3,1119.1z"/>
	</g>
	<circle id="blanc" class="st4" cx="1018.3" cy="1267.6" r="108"/>
	<g>
		<path d="M970.1,1224v28c4.9-2.3,9.6-3.5,14-3.5c4.4,0,8.6,1,12.6,2.9s7.2,4.6,9.7,7.9c3.4,4.5,5.1,10.2,5.1,17.1v21.7
			c0,7.8-2,14.2-6.1,19.4c-3,3.8-6.7,6.7-10.9,8.8c-4.3,2.1-8.7,3.1-13.4,3.1c-4.7,0-9.2-1.1-13.5-3.2c-4.3-2.1-8-5.1-11-8.9
			c-4.2-5.3-6.3-11.7-6.3-19.3v-4.4h17v4.4c0,4,0.8,7.4,2.4,10c2.4,4,6.2,5.9,11.4,5.9c4.5,0,8.1-1.7,10.8-5
			c1.7-2.1,2.5-4.9,2.5-8.2v-24.5c0-2.6-0.8-5-2.3-7.1c-2.7-3.7-6.5-5.6-11.3-5.6c-4.9,0-8.5,1.8-10.8,5.3h-17v-60.4h56.1v15.3
			H970.1z"/>
		<path d="M1030.9,1298.5V1238c0-6.3,1.6-11.9,4.7-16.8c2.8-4.4,6.7-7.8,11.6-10.4c4.7-2.6,9.6-3.8,14.7-3.8
			c7.6,0,14.3,2.5,20.1,7.6c6.7,6,10.1,13.8,10.1,23.5v60.5c0,7.2-2,13.4-6,18.8c-6,8.1-14.3,12.1-24.7,12.1
			c-9.3,0-17-3.5-23.1-10.4C1033.4,1313.4,1030.9,1306.6,1030.9,1298.5z M1075.1,1298.5v-62.3c0-2.6-0.8-5.1-2.3-7.7
			c-2.5-4.1-6.2-6.2-11.2-6.2c-5,0-8.9,2.1-11.7,6.3c-1.4,2.1-2.1,4.6-2.1,7.6v64.1c0,3,1,5.8,3,8.4c2.7,3.7,6.3,5.5,10.8,5.5
			c5.2,0,9-2.3,11.6-7C1074.5,1304.9,1075.1,1302,1075.1,1298.5z"/>
	</g>
</g>
</svg>
