<?xml version="1.0" encoding="utf-8"?>
<!-- Generator: Adobe Illustrator 28.0.0, SVG Export Plug-In . SVG Version: 6.00 Build 0)  -->
<svg version="1.1" id="Calque_1" xmlns="http://www.w3.org/2000/svg" xmlns:xlink="http://www.w3.org/1999/xlink" x="0px" y="0px"
	 viewBox="0 0 1449.83 1449.83" style="enable-background:new 0 0 1449.83 1449.83;" xml:space="preserve">
<style type="text/css">
	.st0{fill:#FFFFFF;}
	.st1{fill:none;stroke:#000000;stroke-width:28;stroke-miterlimit:10;}
	.st2{fill:#918F90;}
	.st3{fill:#909090;}
</style>
<path id="fond" class="st0" d="M1228.91,1401.91h-951c-27.61,0-50-22.39-50-50v-1239c0-27.61,22.39-50,50-50h951
	c27.61,0,50,22.39,50,50v1239C1278.91,1379.53,1256.53,1401.91,1228.91,1401.91z"/>
<path id="contour" class="st1" d="M1224.91,1362.91h-943c-8.28,0-15-6.72-15-15v-1231c0-8.28,6.72-15,15-15h943
	c8.28,0,15,6.72,15,15v1231C1239.91,1356.2,1233.2,1362.91,1224.91,1362.91z"/>
<g id="C43">
	<circle id="rouge" class="st2" cx="753.41" cy="732.41" r="327.5"/>
	<circle id="blanc" class="st0" cx="753.41" cy="732.41" r="250"/>
	<g>
		<path class="st3" d="M643.24,710.71h16.35c6.73,0.14,12.64-1.95,17.76-6.26c6.19-5.38,9.28-12.24,9.28-20.58v-28.46
			c0-7.67-2.49-14.06-7.47-19.17c-5.52-5.92-12.18-8.88-19.98-8.88c-9.55,0-17.22,4.11-23.01,12.31c-3.1,4.58-4.64,9.82-4.64,15.74
			v11.5h-39.15v-6.66c0-14.66,3.77-27.51,11.3-38.55c6.32-9.28,14.36-16.55,24.12-21.8c9.75-5.25,20.15-7.87,31.18-7.87
			c10.22,0,19.98,2.25,29.26,6.76c9.28,4.51,17.08,10.8,23.41,18.87c9.55,12.11,14.33,26.3,14.33,42.58v23.61
			c0,9.82-2.56,19.31-7.67,28.45c-3.9,6.73-9.15,12.45-15.74,17.15c6.99,3.5,13.05,8.81,18.16,15.94
			c6.19,9.15,9.28,19.58,9.28,31.28v29.46c0,16.14-5.79,30.88-17.35,44.2c-14.4,16.82-32.63,25.23-54.69,25.23
			c-22.2,0-40.56-9.21-55.09-27.65c-9.69-12.38-14.53-26.3-14.53-41.77v-12.92h39.35v12.92c0,7.4,1.95,14.13,5.85,20.18
			c5.92,9.15,14.46,13.72,25.63,13.72c12.38,0,21.39-5.45,27.04-16.35c2.96-5.65,4.44-11.5,4.44-17.56v-28.66
			c0-7.8-2.56-14.66-7.67-20.58c-6.19-7.13-14.13-10.7-23.81-10.7h-15.94V710.71z"/>
		<path class="st3" d="M775.02,803.94V663.89c0-14.66,3.63-27.65,10.9-38.95c6.59-10.09,15.54-18.09,26.84-24.02
			c10.9-5.92,22.26-8.88,34.11-8.88c17.62,0,33.1,5.85,46.42,17.56c15.61,13.86,23.41,31.96,23.41,54.29v140.05
			c0,16.55-4.64,31.08-13.92,43.59c-13.99,18.7-33.03,28.05-57.11,28.05c-21.53,0-39.35-8-53.48-24.01
			C780.74,838.52,775.02,822.65,775.02,803.94z M877.33,803.94V659.65c0-5.92-1.75-11.84-5.25-17.76
			c-5.79-9.55-14.4-14.33-25.83-14.33c-11.57,0-20.58,4.84-27.04,14.53c-3.23,4.84-4.84,10.7-4.84,17.56v148.33
			c0,7,2.29,13.46,6.86,19.37c6.32,8.48,14.66,12.71,25.02,12.71c11.97,0,20.92-5.38,26.84-16.14
			C875.92,818.68,877.33,812.02,877.33,803.94z"/>
	</g>
</g>
<g>
	<path d="M506.43,332.77h93.28v33.72H460.68v-33.72l89.27-135.32h-85.11v-33.72H595.1v33.72L506.43,332.77z"/>
	<path d="M624.96,311.67v-35.35c0-14.06,4.36-26.39,13.07-36.99c11.78-14.46,26.69-21.69,44.71-21.69
		c13.67,0,25.85,4.26,36.54,12.77c9.41,7.53,15.84,17.53,19.31,30c1.49,5.55,2.23,10.84,2.23,15.89v35.35
		c0,12.08-3.42,23.22-10.25,33.42c-5.15,7.43-11.73,13.42-19.75,17.97c-8.91,4.95-18.37,7.43-28.37,7.43
		c-13.86,0-26.14-4.5-36.84-13.52c-8.52-7.13-14.51-16.69-17.97-28.67C625.85,322.27,624.96,316.72,624.96,311.67z M707.1,315.68
		v-43.67c0-6.73-2.18-12.53-6.54-17.38c-4.95-5.35-10.84-8.02-17.68-8.02c-8.12,0-14.71,3.47-19.76,10.4
		c-2.97,4.06-4.46,9.06-4.46,15v43.67c0,6.44,1.73,11.83,5.2,16.19c5.15,6.44,11.59,9.65,19.31,9.65c8.91,0,15.69-3.91,20.35-11.73
		C705.91,325.64,707.1,320.93,707.1,315.68z"/>
	<path d="M779.29,366.48V221.66h33.72v9.8c11.09-9.21,22.28-13.81,33.57-13.81c15.45,0,28.17,6.29,38.17,18.86
		c6.93,8.81,10.4,18.86,10.4,30.15v99.82h-33.72v-94.47c0-6.73-2.03-12.48-6.09-17.23c-4.66-5.44-10.69-8.17-18.12-8.17
		c-9.31,0-16.29,3.81-20.94,11.44c-2.18,3.56-3.27,8.22-3.27,13.96v94.47H779.29z"/>
	<path d="M964.67,305.73v10.69c0,6.54,1.88,12.03,5.64,16.49c4.85,5.74,10.89,8.61,18.12,8.61c9.11,0,16.09-4.4,20.94-13.22h34.61
		c-2.08,8.12-5.79,15.25-11.14,21.39c-12.08,13.86-26.84,20.8-44.26,20.8c-8.62,0-16.88-1.88-24.81-5.64
		c-7.92-3.76-14.61-9.01-20.05-15.75c-8.52-10.3-12.77-22.73-12.77-37.28v-35.05c0-13.86,3.86-25.94,11.59-36.24
		c11.19-14.95,26.44-22.43,45.75-22.43c9.21,0,17.97,2.03,26.29,6.09c8.32,4.06,15.1,9.61,20.35,16.64
		c4.75,6.54,8.22,14.46,10.4,23.77c0.99,4.46,1.49,8.52,1.49,12.18v28.96H964.67z M1012.64,276.77v-4.31
		c0-5.74-1.83-11.04-5.5-15.89c-4.75-6.34-10.84-9.51-18.27-9.51c-8.81,0-15.65,4.01-20.5,12.03c-2.48,4.16-3.71,8.62-3.71,13.37
		v4.31H1012.64z"/>
</g>
<path id="barre" d="M1225.86,116.64l-0.94-0.72h-81.86L280.91,1241.99v105.92c0,0.55,0.45,1,1,1h80.86l863.14-1127.38V116.91
	C1225.91,116.81,1225.88,116.73,1225.86,116.64z"/>
</svg>
