<?xml version="1.0" encoding="utf-8"?>
<!-- Generator: Adobe Illustrator 28.0.0, SVG Export Plug-In . SVG Version: 6.00 Build 0)  -->
<svg version="1.1" id="Calque_1" xmlns="http://www.w3.org/2000/svg" xmlns:xlink="http://www.w3.org/1999/xlink" x="0px" y="0px"
	 viewBox="0 0 1449.83 1449.83" style="enable-background:new 0 0 1449.83 1449.83;" xml:space="preserve">
<style type="text/css">
	.st0{fill:#005B8C;}
	.st1{fill:none;stroke:#FFFFFF;stroke-width:22;stroke-miterlimit:10;}
	.st2{fill:#FFFFFF;}
	.st3{fill:#BB1E10;}
</style>
<path id="fond" class="st0" d="M1330.91,1409.98h-1212c-44.18,0-80-35.82-80-80v-1212c0-44.18,35.82-80,80-80h1212
	c44.18,0,80,35.82,80,80v1212C1410.91,1374.17,1375.1,1409.98,1330.91,1409.98z"/>
<path id="contour" class="st1" d="M1328.91,1382.98h-1208c-30.38,0-55-24.62-55-55v-1208c0-30.38,24.62-55,55-55h1208
	c30.38,0,55,24.62,55,55v1208C1383.91,1358.36,1359.29,1382.98,1328.91,1382.98z"/>
<g id="pieton">
	<circle id="tete" class="st2" cx="217.81" cy="167.46" r="26.01"/>
	<path id="corps" class="st2" d="M228.56,193.47c-2.3,0.3-5.89,1.06-9.67,3.25c-6.27,3.63-9.19,8.93-10.84,11.92
		c-3.2,5.82-4.09,11.16-4.33,14.09s0.57,40.22-0.12,78.72c-0.05,2.57-0.72,4.65-2.13,6.3c-10.91,12.75-21.47,25.79-32.2,38.69
		c-2.68,3.22-4.55,7.05-5.45,11.15l-17.78,81.15c-0.09,0.39-1.94,9,4.16,14.7c4,3.74,8.91,3.89,10.18,3.88
		c1.54,0.12,4.06,0.09,6.75-1.11c6.45-2.87,8.12-9.88,8.32-10.82c5.22-24.4,10.45-48.8,15.67-73.2c0.45-2.08,1.5-4.84,2.92-6.42
		l48-53.55c2.41-2.69,3.88-5.82,3.88-9.43v-75.19l23.86,13.59c0.78,0.44,1.18,1.57,1.28,2.46l5.26,47.34c0,0.75,0.08,6.18,4.56,9.85
		c3.43,2.8,7.27,2.81,8.32,2.77c0.8,0.04,5.12,0.2,8.6-3.05c4.47-4.18,3.52-10.2,3.44-10.65c-2.29-18.65-4.58-37.31-6.87-55.96
		c-0.45-3.69-2.46-7.02-5.52-9.13c-4.01-2.77-8.75-6.04-14.07-9.71c-6.56-4.52,1.3,0.91-19.42-12.76
		c-6.18-4.08-9.58-6.34-14.98-7.77C235.57,193.31,231.37,193.29,228.56,193.47z"/>
	<path id="bras" class="st2" d="M199.87,249.79v35.51l-21.22,18.61c-0.76,0.69-4.28,3.71-9.58,3.59c-6.09-0.15-9.72-4.34-10.27-4.99
		c-0.63-0.82-3.23-4.39-2.77-9.43c0.53-5.93,4.87-9.22,5.55-9.71C174.34,272.17,187.11,260.98,199.87,249.79z"/>
	<path id="jambe" class="st2" d="M223.17,339.12l21.09-23.58l65.75,102.93c0.79,0.94,4.16,5.15,3.88,11.38
		c-0.26,5.83-3.54,9.58-4.44,10.54c-0.87,0.8-4.85,4.3-10.82,4.16c-7.72-0.18-12.05-6.3-12.48-6.94
		C265.16,404.79,244.17,371.95,223.17,339.12z"/>
</g>
<path id="velo" class="st2" d="M784.43,268.87c-15.79-16.38-36.78-25.4-59.1-25.4c-13.95,0-27.37,3.52-39.33,10.15
	c-7.27-10.68-14.54-21.36-21.8-32.04c-1.64-2.42-1.99-5.54-0.9-8.27c4.25-10.75,8.49-21.5,12.74-32.24
	c0.24-0.61,0.81-1.01,1.45-1.01h18.18c0.81-0.17,2.91-0.71,4.72-2.64c2.25-2.39,2.5-5.26,2.54-6.02c-0.09-1.1-0.41-3.21-1.81-5.27
	c-2.62-3.86-6.88-4.43-7.62-4.52h-48.62c-0.6,0.04-4.42,0.36-6.89,3.76c-1.67,2.3-1.81,4.74-1.81,5.65c-0.02,0.76,0,3.77,2.18,6.4
	c1.75,2.12,3.91,2.8,4.72,3.01h11.52c1.1,0,1.85,1.14,1.46,2.2l-8,21.64c-0.81,2.19-2.84,3.64-5.1,3.64H525.04
	c-0.47,0-0.78-0.5-0.59-0.94l11.72-27.93c0.8-1.9,2.6-3.12,4.6-3.12l27.28,0c0.83,0,1.65-0.17,2.41-0.53
	c0.98-0.46,2.21-1.22,3.31-2.49c2.37-2.73,2.52-5.91,2.54-6.78c-0.08-0.99-0.38-3.13-1.81-5.27c-1.04-1.55-2.3-2.54-3.33-3.16
	c-0.89-0.53-1.9-0.79-2.92-0.79l-38.3,0.33c-3.02,0.03-5.75,1.9-6.95,4.78c-5.2,12.49-19.94,47.94-35.34,85.07
	c-7.77-2.43-15.93-3.69-24.27-3.69c-22.33,0-43.32,9.02-59.1,25.4c-15.79,16.38-24.48,38.16-24.48,61.32
	c0,23.16,8.69,44.94,24.48,61.32c15.79,16.38,36.78,25.4,59.1,25.4s43.32-9.02,59.1-25.4c15.79-16.38,24.48-38.16,24.48-61.32
	c0-23.16-8.69-44.94-24.48-61.32c-5.39-5.59-11.38-10.32-17.82-14.13l8.27-20.28c0.42-1.03,1.77-1.18,2.39-0.26l80.63,119.61
	c1.96,2.9,5.35,4.37,8.72,3.77l39.38-7.02c3.54,15.41,11.12,29.55,22.19,41.03c15.79,16.38,36.78,25.4,59.1,25.4
	s43.32-9.02,59.1-25.4c15.79-16.38,24.48-38.16,24.48-61.32C808.91,307.03,800.22,285.25,784.43,268.87z M527.72,330.12
	c0,36.82-28.87,66.77-64.35,66.77s-64.35-29.95-64.35-66.77c0-36.82,28.87-66.77,64.35-66.77c5.74,0,11.3,0.79,16.6,2.26
	c-9.22,22.24-18.14,43.82-24.85,60.14c-1.53,4.21-1.02,8.6,1.45,11.29c1.17,1.27,2.55,1.92,3.63,2.26c1.05,0.31,3.26,0.79,5.8,0
	c4.76-1.47,6.64-6.11,6.89-6.78l24.17-59.26C515.45,285.03,527.72,306.11,527.72,330.12z M599.15,326.12l-66.39-98.25h105.7
	L599.15,326.12z M615.48,336.28l38.46-97.5l17.35,25.25c-1.74,1.53-3.43,3.14-5.06,4.84c-15.79,16.38-24.48,38.16-24.48,61.32
	c0,0.53,0.01,1.05,0.02,1.58L615.48,336.28z M682.52,280.38l27.29,39.71L661,328.47C661.47,309.38,669.69,292.27,682.52,280.38z
	 M725.33,396.96c-29.86,0-55.03-21.21-62.26-49.87l62.71-11.19l2.07-0.36c5.36-0.93,8.23-7.08,5.61-12.02l-0.42-0.8
	c-11.93-17.53-23.86-35.07-35.8-52.6c8.49-4.29,18.03-6.71,28.1-6.71c35.48,0,64.35,29.95,64.35,66.77
	C789.68,367.01,760.81,396.96,725.33,396.96z"/>
<g id="cyclo">
	<path id="phare" class="st2" d="M1004.57,171.82c0-10.45-10.95-18.92-24.5-18.99v37.98
		C993.62,190.74,1004.57,182.27,1004.57,171.82z"/>
	<path id="cadre" class="st2" d="M1226.66,244.43c-30.3,0-56.23,18.65-66.97,45.09h-23.61v0c22.23-49,63.94-62.56,98.57-62.66
		l32.86-0.17c2.23-0.01,4.44-0.34,6.57-0.98c0.22-0.07,0.44-0.15,0.64-0.26c4.24-2.39,5.22-8.78,3.13-13.19
		c-1.08-2.29-3.25-3.88-5.74-4.33l-5.56-0.99c-1.86-0.33-3.74-0.5-5.63-0.5h-28.75c-16.73,0.84-33.71,4.58-49.45,11.22l-12.7-19.39
		h27c0.91,0,1.81-0.27,2.57-0.78l0.73-0.48c5.74-3.82,5.81-12.23,0.14-16.15l-0.84-0.58c-0.77-0.54-1.69-0.82-2.63-0.82h-69.15
		c-0.71,0.11-4.18,0.73-6.45,3.91c-1.55,2.17-1.75,4.4-1.78,5.33c-0.08,0.78-0.27,3.42,1.42,6.04c1.46,2.27,3.49,3.23,4.26,3.55
		h24.5l13.14,23.43v6.3c-21.76,13.87-39.21,34.37-47.22,61.51v0h-25.41c-2.29,0-4.41-1.23-5.56-3.21l-51.62-89.62
		c-2.75-4.77-2.91-10.61-0.42-15.52l11.34-22.44c0.62-1.23,1.88-2,3.25-2h26.87c1.04-0.72,2.56-1.97,3.91-3.91
		c1.64-2.38,2.24-4.69,2.49-6.04c0.09-1.13,0.11-3.1-0.71-5.33c-0.59-1.6-1.4-2.78-2.02-3.55h-37.4c-4.54,0-8.68,2.62-10.62,6.73
		l-48.77,103.4c-6.96-2.23-14.38-3.44-22.08-3.44c-39.9,0-72.25,32.35-72.25,72.25s32.35,72.25,72.25,72.25
		c39.9,0,72.25-32.35,72.25-72.25c0-26.02-13.75-48.82-34.38-61.54l12-25.55c0.75-1.6,2.99-1.68,3.86-0.15l54.78,96.53
		c1.86,3.27,4,6.37,6.41,9.27l4.44,5.33c2.76,3.31,6.86,5.21,11.17,5.17l70.77-0.68c11.07,25.71,36.63,43.71,66.39,43.71
		c39.9,0,72.25-32.35,72.25-72.25S1266.56,244.43,1226.66,244.43z M1012.03,316.86c0,29.32-23.77,53.08-53.08,53.08
		c-29.32,0-53.08-23.77-53.08-53.08c0-29.32,23.77-53.08,53.08-53.08c4.77,0,9.4,0.63,13.8,1.82l-10.78,22.86l-0.57,1.1
		c-0.46-0.02-0.92-0.03-1.38-0.03c-15.3,0-27.69,12.4-27.69,27.69s12.4,27.69,27.69,27.69s27.69-12.4,27.69-27.69
		c0-8.55-3.88-16.19-9.97-21.27l10.86-23.12C1002.73,282.36,1012.03,298.53,1012.03,316.86z M1226.66,369.76
		c-18.89,0-35.48-9.87-44.89-24.74l47.43-0.45c1.01-0.01,2.02-0.22,2.95-0.61h0c23.63-9.89,23.55-43.4-0.13-53.18l-1.62-0.67
		c-0.95-0.39-1.97-0.59-2.99-0.59h-46.36c9.26-15.52,26.22-25.92,45.61-25.92c29.32,0,53.08,23.77,53.08,53.08
		C1279.74,346,1255.97,369.76,1226.66,369.76z"/>
	<g>
		<path class="st2" d="M1060.82,495.86V387.14h45.88c8.18-0.05,15.03,2.74,20.55,8.36c5.47,5.79,8.18,12.69,8.12,20.71v3.58
			c0,7.27-2.39,13.67-7.17,19.19c-5.79,6.53-12.98,9.77-21.58,9.72h-25.88v47.15H1060.82z M1080.73,430.63h23.26
			c3.4,0,6.13-1.01,8.2-3.03c2.18-2.12,3.27-4.73,3.27-7.81v-3.58c0-2.97-1.09-5.55-3.27-7.73c-2.12-2.18-4.83-3.27-8.12-3.27
			h-23.34V430.63z"/>
	</g>
</g>
<g id="attelage">
	<path id="roue_1" class="st2" d="M601.53,744.73c-35.86,0-64.94,29.07-64.94,64.94s29.07,64.94,64.94,64.94
		s64.94-29.07,64.94-64.94S637.4,744.73,601.53,744.73z M601.53,857.45c-26.39,0-47.79-21.4-47.79-47.79s21.4-47.79,47.79-47.79
		c26.39,0,47.79,21.4,47.79,47.79S627.93,857.45,601.53,857.45z"/>
	<path id="roue_2" class="st2" d="M781.98,744.53c-35.86,0-64.94,29.07-64.94,64.94s29.07,64.94,64.94,64.94
		c35.86,0,64.94-29.07,64.94-64.94S817.84,744.53,781.98,744.53z M781.98,857.26c-26.39,0-47.79-21.4-47.79-47.79
		s21.4-47.79,47.79-47.79c26.39,0,47.79,21.4,47.79,47.79S808.37,857.26,781.98,857.26z"/>
	<path id="charette" class="st2" d="M553.18,761.72h1.13c11.84-12.54,28.61-20.36,47.22-20.36c18.6,0,35.38,7.83,47.22,20.36h85.83
		c11.85-12.65,28.7-20.56,47.4-20.56c18.7,0,35.55,7.91,47.4,20.56h17.4v-99.58H677.43v-81.01c-1.09-11.3-10.78-19.9-21.93-19.68
		c-10.84,0.21-20.01,7.01-21.07,17.99c0,9.18,0,20.05,0,29.23H597.6c-5.98-0.08-10.84,4.89-10.68,10.68
		c0.15,5.59,4.92,10.2,10.68,10.12c12.18,0,24.36,0,36.54,0v17.99h-27.7c-6.23,0-12.04,3.12-15.49,8.31l-37.78,56.91l-18.55-14.06
		l-11.24,15.18l29.8,22.13V761.72z M606.59,680.64h24.49l-22.8,33.73H584.1L606.59,680.64z"/>
	<path id="cheval" class="st2" d="M170.08,588.71l-43.6,50.78c-0.33,0.38-0.31,0.95,0.03,1.31l9.69,10.2
		c0.24,0.25,0.58,0.36,0.92,0.28l51.05-10.98c0.42-0.09,0.84,0.1,1.06,0.47l19.47,33.95c1.28,2.24,1.64,4.9,0.96,7.39
		c-1.38,5.07-2.59,11.88-2.24,19.89c0.47,10.82,3.59,19.48,6.35,25.24c1.11,2.33,0.34,5.12-1.83,6.52
		C194.47,745,177,756.24,159.52,767.49c-0.28,0.18-0.45,0.49-0.45,0.82v75.51c0,0.54,0.44,0.98,0.98,0.98h0.67
		c0.18,0,0.36-0.05,0.52-0.15l16.48-10.25c0.29-0.18,0.46-0.49,0.46-0.83v-50.06c0-0.34,0.18-0.66,0.47-0.84l45.79-27.8
		c0.51-0.31,1.17-0.1,1.41,0.45l43.84,101c0.08,0.19,0.1,0.39,0.06,0.59l-3.43,16.27c-0.13,0.61,0.34,1.18,0.96,1.18h16.63
		c0.46,0,0.86-0.32,0.96-0.77l4-17.84c0.04-0.18,0.03-0.36-0.03-0.54l-34.2-98.18c-0.25-0.71,0.37-1.43,1.11-1.28
		c13.03,2.61,29.2,4.73,47.79,4.72c20.08-0.02,37.39-2.52,51.02-5.47c0.42-0.09,0.84,0.1,1.06,0.48
		c10.48,18.56,20.95,37.13,31.43,55.69c0.16,0.29,0.17,0.64,0.01,0.94l-31.95,60.82c-0.34,0.65,0.13,1.44,0.87,1.44h20.12
		c0.36,0,0.7-0.2,0.87-0.52l32.69-61.93c0.09-0.18,0.13-0.38,0.1-0.59l-6.39-48.5c-0.11-0.87,0.88-1.44,1.57-0.9l49.38,38.11
		c0.28,0.22,0.43,0.58,0.37,0.93l-10.89,68.09c-0.12,0.73,0.59,1.32,1.29,1.08l19.26-6.59c0.34-0.12,0.59-0.41,0.65-0.77L476.1,794
		c0.04-0.23-0.01-0.47-0.13-0.67l-27.79-45.43c-0.78-1.28-0.96-2.83-0.51-4.26c1.85-5.89,4.23-16.75,1.51-29.83
		c-2.55-12.25-8.41-20.84-12.17-25.43c-0.75-0.92-0.72-2.25,0.1-3.12c1.12-1.2,2.52-2.59,4.2-4.06c0.75-0.65,3.14-2.74,5.06-3.94
		c6.25-3.89,14.03-2.46,15.18-2.25c10.15,1.87,15.68,10.43,17.49,13.8c0.4,0.75,0.69,1.54,0.84,2.38l6.29,34.2
		c0.23,1.25,1.6,1.91,2.73,1.32l24.19-12.78c0.77-0.41,1.16-1.29,0.94-2.13l-7.48-28.86c-0.01-0.04-0.02-0.07-0.04-0.11
		c-1.55-3.97-6.77-15.74-19.66-23c-9.74-5.48-18.95-5.61-22.49-5.62c-3.98-0.01-11.97,0.07-20.24,4.5
		c-4.36,2.33-7.55,5.21-12.37,9.56c-3.3,2.98-5.95,5.71-7.89,7.83c-0.32,0.35-0.84,0.41-1.24,0.16c-3.69-2.29-8.93-5-15.61-6.87
		c-6.45-1.81-12.13-2.24-16.3-2.25c-2.23,0-5.56,0.1-9.56,0.56c-6.14,0.72-10.59,1.93-11.81,2.25c-10.23,2.67-31.65,4.67-50.6,4.5
		c-9-0.08-20.61-0.69-34.12-2.7c-0.46-0.07-0.88-0.34-1.13-0.73c-11.86-18.35-23.72-36.69-35.58-55.04
		c-3.56-5.78-12.48-18.49-29.23-26.99c-13.42-6.8-25.8-7.83-32.61-7.87c-0.36,0-0.7-0.14-0.95-0.4l-13.11-13.11
		c-0.62-0.62-1.67-0.18-1.67,0.69v19.76C170.32,588.31,170.24,588.53,170.08,588.71z"/>
	<polygon id="tige" class="st2" points="458.17,730.11 544.19,752.6 544.19,761.72 458.17,739.9 	"/>
	<circle id="tete_00000095335002863054702540000004737009727298308739_" class="st2" cx="655.51" cy="529.96" r="24.74"/>
</g>
<g id="maison_00000090976150391446820380000011876126688612956850_">
	<rect id="fenetre_2" x="1117.61" y="654.06" class="st2" width="67.36" height="89.51"/>
	<rect id="fenetre_1" x="1024.41" y="654.06" class="st2" width="67.36" height="89.51"/>
	<path id="maison" class="st2" d="M1104.7,545.17l-49.88,32.14l0.05-15.53l-65.55,0.03l0.03,57.69l-105.2,67.79h82.13l0.92,219.63
		h137.5h137.5l0.92-219.63h82.13L1104.7,545.17z M1220.05,879.23h-80.73V762.96l-34.63,0h-34.63v116.27h-80.73V666.06l115.35-81.29
		l115.35,81.29V879.23z"/>
</g>
<g id="cavalier">
	<circle id="tete_00000005247211001654191740000013168921565611791038_" class="st2" cx="280.79" cy="983.35" r="24.09"/>
	<path id="cheval_00000111906637381527660610000002445300432230368146_" class="st2" d="M462.95,1144.44l-19.82-28.95
		c-1.72-2.52-4.72-3.85-7.74-3.44l-14.41,1.96c-2.99,0.41-5.99-0.63-8.06-2.83c-2.01-2.13-4.72-4.52-8.26-6.63
		c-5.43-3.24-10.51-4.44-13.66-4.93h-31.85c-1.64,0-3.21-0.68-4.34-1.88c-1.58-1.67-2.99-3.84-3.27-6.47
		c-0.58-5.52,4.32-8.72,7.59-15.93c1.68-3.71,3.33-9.36,2.66-17.45c-0.29-4.1-2.14-23.84-18.97-38.7
		c-13.92-12.29-29.62-13.77-34.52-14.04c-5.79,0.15-15.75,1.31-24.66,7.97c-4.59,3.43-8.04,7.67-14.8,20.49
		c-4.18,7.94-9.4,18.73-14.55,32.13c-0.52,1.35-2.25,1.74-3.29,0.72c-16.58-16.17-33.16-32.33-49.74-48.5
		c-0.97-0.95-1.86-1.98-2.65-3.09l-12.15-17.07c-0.28-0.39-0.89-0.29-1.02,0.18l-3.1,11.35l-5.28,0.56
		c-2.34-3.59-2.77-4.25-5.12-7.84c1.17-2.15-0.7-2.3-0.79-1.4l-1.2,12.57c-0.09,0.92-0.47,1.78-1.1,2.46
		c-6.92,7.48-12.28,14.08-16.11,19.07c-5.43,7.07-8.39,11.67-11,17.07c-3.35,6.92-5.5,11.55-4.55,17.45
		c0.13,0.83,1.83,10.55,8.35,12.9c5.41,1.95,10.41-2.51,24.28-11c7.35-4.5,13.76-8.03,18.6-10.58c1.14-0.6,2.54,0.05,2.81,1.31
		c5.88,26.85,11.75,53.69,17.63,80.54c0.69,3.17-0.82,6.4-3.7,7.9l-38.64,20.06c-3.72,1.93-5.86,5.97-5.36,10.13l6.32,53.13
		c0.27,2.28,1.73,4.25,3.84,5.17l29.6,12.93c5.24,2.43,11.45,0.31,14.04-4.55c2.75-5.17,0.6-11.95-4.93-14.65l-18.96-5.96
		c-3.91-1.23-6.54-4.91-6.4-9.01c0.11-3.19,0.11-6.61-0.06-10.21c-0.29-6.03-1-11.52-1.9-16.35c-0.36-1.96,1.14-3.76,3.13-3.76
		l34.67,0c1.37,0,2.54,1,2.74,2.36c1.39,9.29,4.31,21.55,10.67,34.82c4.05,8.44,8.59,15.4,12.79,20.95c1.29,1.71,2,3.78,2,5.92
		l0,41.41c0.95,5.33,5.66,9.2,11,9.1c5.2-0.09,9.69-3.92,10.62-9.1c0.16-8.22,0.06-16.96-0.38-26.18
		c-0.43-8.88-1.14-17.31-2.03-25.23c-0.16-1.38-0.59-2.71-1.28-3.92c-1.88-3.33-3.75-6.65-5.63-9.98c-1.1-1.96-1.68-4.16-1.68-6.41
		v-17.8c0-2.28,0.18-4.57,0.55-6.82l1.52-9.29c0.56-3.44,3.45-6.01,6.93-6.18c12.1-0.58,24.53-1.37,37.28-2.38
		c11.83-0.95,23.35-2.05,34.57-3.28c4.49-0.49,8.62,2.52,9.54,6.94c2.26,10.93,4.51,21.86,6.77,32.78
		c0.94,4.56-0.15,9.29-2.99,12.98l-44.09,57.17c-3.36,3.88-3.02,9.81,0.76,13.28c3.77,3.46,9.7,3.29,13.28-0.38
		c17.3-22.26,34.6-44.52,51.89-66.77c1.61-2.07,2.47-4.62,2.42-7.24c-0.04-2.83-0.28-6.01-0.83-9.45
		c-0.74-4.61-1.89-8.61-3.08-11.93c-0.37-1.02,0.62-2.01,1.65-1.63c5.74,2.11,11.48,4.21,17.22,6.32c2.03,0.75,3.67,2.3,4.53,4.29
		l18.61,43.2c0.85,1.98,1.29,4.11,1.29,6.26v38.86c1.11,4.79,5.46,8.13,10.24,7.95c4.52-0.17,8.45-3.43,9.48-7.95
		c0.43-6.38,0.32-13.48,0.38-20.5c0.07-8.17,0.15-15.65-0.21-22.93c-0.09-1.87-0.57-3.7-1.38-5.38
		c-6.59-13.63-13.18-27.26-19.77-40.89c-0.88-1.81-1.06-3.87-0.54-5.81c0.75-2.81,1.41-6.03,1.8-9.59c0.25-2.27,0.37-4.41,0.4-6.4
		c0.02-1.7,0.63-3.33,1.72-4.64c1.02-1.22,2.13-2.73,3.19-4.52c1.09-1.86,4.42-7.92,4.93-23.14c0.18-5.33-0.04-12.73-1.32-21.15
		c-0.04-0.28,0.08-0.52,0.25-0.72c0.29-0.34,0.73-0.51,1.18-0.53l3.51-0.08c0.83,0.06,1.59,0.5,2.04,1.2l11.15,17.23
		c0.43,0.66,0.65,1.42,0.65,2.21v58.74c1.5,4.16,5.49,6.91,9.86,6.83c4.24-0.08,8.03-2.8,9.48-6.83v-64.53
		C464.22,1147.07,463.78,1145.65,462.95,1144.44z M296.85,1087.99c-3.81-1-7.84-1.93-12.07-2.78c-6.22-1.24-12.12-2.11-17.62-2.73
		c-1.07-0.12-1.52-1.41-0.76-2.17c2.78-2.81,5.97-6.58,8.9-11.42c2.6-4.28,4.36-8.36,5.57-11.85c0.41-1.17,2.06-1.15,2.43,0.03
		c1.31,4.24,3.12,9.02,5.66,14.09c2.96,5.92,6.22,10.85,9.24,14.81C298.92,1086.95,298.02,1088.3,296.85,1087.99z M346.23,1065.11
		c-0.43,0.64-1.03,1.39-1.87,2.13c-0.54,0.47-1.38,0.25-1.6-0.43c-1.37-4.12-2.86-8.36-4.49-12.7c-1.51-4.02-3.06-7.9-4.62-11.63
		c-0.31-0.75,0.34-1.53,1.14-1.36c1.66,0.36,3.89,1.12,6.14,2.74c3.17,2.29,4.69,5.11,5.31,6.45
		C346.63,1051.14,350.27,1059.06,346.23,1065.11z"/>
</g>
<g id="tracteur">
	<path id="chassis" class="st2" d="M740.04,1210.07c0.78-12.43,5.19-48.51,35.28-74.85c19.9-17.41,41.24-21.99,48.83-23.52
		c7.01-1.42,22.95-4.46,42.77,0c25.84,5.82,42.45,20.84,49.54,28.16l6.42,7.48c1.18,1.01,3.5,2.64,6.42,2.49
		c5.31-0.26,9.49-6.22,9.27-11.41c-0.09-2.09-0.88-3.71-1.43-4.63c-3.54-4.17-6.72-7.26-8.91-9.27
		c-3.4-3.12-16.84-15.46-26.37-20.67c-1.04-0.57-4.21-2.24-6.22-5.76c-0.85-1.5-1.24-2.87-1.42-3.68l-16.59-72.89h15.37
		c6.36-0.14,11.51-5.26,11.71-11.41c0.21-6.44-5.05-12.05-11.71-12.2c-53.01,0-106.01,0-159.02,0c-6.89-0.19-12.58,5.48-12.46,12.2
		c0.12,6.56,5.73,11.95,12.46,11.76c2.02,0,4.05,0,6.07,0l-3.87,43.13c-0.46,5.1-4.13,9.34-9.12,10.53l-170.24,40.35
		c-8.1,1.92-14.14,9.22-14.01,17.55c0.05,7.01,0.09,14.02,0.14,21.03c-0.01,0.6-0.06,5.54,3.21,7.48c1.68,1,3.51,0.82,5.7,0.5
		c3.62-0.53,5.02-1.88,8.71-2.86c2.24-0.59,4.67-1.12,7.32-1.56c8.51-1.39,20.32-3.33,34.22-0.36c24.6,5.26,39.3,22.42,43.13,27.09
		c13.02,15.87,16.41,32.51,17.46,39.92c1.07,7.48,2.14,14.97,3.21,22.45l19.25,1.43h59.2
		C741.82,1239.83,739.01,1226.39,740.04,1210.07z M755.66,1082.37l6.47-60.49h93.38l15.68,68.07c-2.72-0.13-6.66-0.28-11.41-0.36
		c-10.28-0.16-17.82-0.28-26.37,0.71c-7.88,0.92-13.43,2.42-20.32,4.28c-7.58,2.05-17.66,5.24-29.23,10.34
		c-7.67,2.53-16.05,0.76-21.74-4.63C754.7,1093.25,755.54,1083.53,755.66,1082.37z"/>
	<path id="roue_1_00000067228504693198336090000008204520521853258671_" class="st2" d="M580.9,1171.93
		c-35.53,0-64.33,29.6-64.33,66.11c0,36.51,28.8,66.11,64.33,66.11c35.53,0,64.33-29.6,64.33-66.11
		C645.23,1201.53,616.43,1171.93,580.9,1171.93z M580.9,1265.31c-14.66,0-26.55-12.21-26.55-27.27c0-15.06,11.89-27.27,26.55-27.27
		s26.55,12.21,26.55,27.27C607.45,1253.1,595.57,1265.31,580.9,1265.31z"/>
	<path id="roue_2_00000135692537766797119940000007076610643020707259_" class="st2" d="M846.43,1123.41
		c-50.69,0-91.78,42.23-91.78,94.32s41.09,94.32,91.78,94.32s91.78-42.23,91.78-94.32S897.11,1123.41,846.43,1123.41z
		 M846.43,1256.62c-20.92,0-37.88-17.41-37.88-38.9s16.96-38.9,37.88-38.9c20.92,0,37.88,17.41,37.88,38.9
		S867.35,1256.62,846.43,1256.62z"/>
</g>
<g>
	<path class="st3" d="M120.91,1379.48c-28.4,0-51.5-23.1-51.5-51.5v-32.42L1296.49,68.48h32.42c28.4,0,51.5,23.1,51.5,51.5v34.28
		L155.2,1379.48H120.91z"/>
	<path class="st2" d="M1328.91,75.98c24.26,0,44,19.74,44,44v31.18L152.09,1371.98h-31.18c-24.26,0-44-19.74-44-44v-29.32
		L1299.6,75.98H1328.91 M1328.91,60.98h-29.32h-6.21l-4.39,4.39L66.31,1288.06l-4.39,4.39v6.21v29.32c0,32.53,26.47,59,59,59h31.18
		h6.21l4.39-4.39L1383.52,161.77l4.39-4.39v-6.21v-31.18C1387.91,87.45,1361.45,60.98,1328.91,60.98L1328.91,60.98z"/>
</g>
</svg>
