<?xml version="1.0" encoding="utf-8"?>
<!-- Generator: Adobe Illustrator 28.0.0, SVG Export Plug-In . SVG Version: 6.00 Build 0)  -->
<svg version="1.1" id="Calque_1" xmlns="http://www.w3.org/2000/svg" xmlns:xlink="http://www.w3.org/1999/xlink" x="0px" y="0px"
	 viewBox="0 0 1500 1500" style="enable-background:new 0 0 1500 1500;" xml:space="preserve">
<style type="text/css">
	.st0{fill:#005B8C;}
	.st1{fill:none;stroke:#FFFFFF;stroke-width:23;stroke-miterlimit:10;}
	.st2{fill:#BB1E10;}
	.st3{fill:none;stroke:#FFFFFF;stroke-width:32;stroke-linecap:round;stroke-miterlimit:10;}
	.st4{fill:#FFFFFF;}
	.st5{fill:none;stroke:#FFFFFF;stroke-width:53;stroke-linecap:round;stroke-miterlimit:10;}
</style>
<path id="fond" class="st0" d="M1159.5,1500h-818c-50.3,0-91-40.7-91-91V91c0-50.3,40.7-91,91-91h818c50.3,0,91,40.7,91,91v1318
	C1250.5,1459.3,1209.7,1500,1159.5,1500z"/>
<path id="contour" class="st1" d="M1146.5,1462h-792c-36.5,0-66-29.5-66-66V104c0-36.5,29.5-66,66-66h792c36.5,0,66,29.5,66,66v1292
	C1212.5,1432.5,1182.9,1462,1146.5,1462z"/>
<path id="voiture" class="st2" d="M1102.8,1001.1c-0.1-14.2-4.8-27.9-13.3-39.4c-5.2-7-10.8-15.2-16.5-24.5
	c-16-26.3-23.8-47.6-29.6-62.4c-9.5-24.7-24.4-60.2-47.1-105.1c-1.5-2.9-5.4-9.5-13.4-14.5c-5.6-3.4-12.2-5.4-19.1-5.4
	c-71.1-0.3-142.2-0.6-213.3-0.9c-71.1,0.3-142.2,0.6-213.3,0.9c-6.9,0-13.5,2-19.1,5.4c-8.1,4.9-12,11.6-13.4,14.5
	c-22.7,44.9-37.6,80.4-47.1,105.1c-5.7,14.9-13.6,36.2-29.6,62.4c-5.7,9.3-11.3,17.5-16.5,24.5c-8.5,11.4-13.1,25.2-13.3,39.4
	l-0.8,114.3c0,19.6,16.1,35.5,35.9,35.5h5.6v75.8c0,13.1,10.8,23.8,24,23.8h49.6c13.3,0,24-10.6,24-23.8v-75.8h214.1h214.1v75.8
	c0,13.1,10.8,23.8,24,23.8h49.6c13.3,0,24-10.6,24-23.8v-75.8h5.6c19.8,0,35.9-15.9,35.9-35.5L1102.8,1001.1z M538.4,789l212.1,0.6
	l212.1-0.6l65.4,148.8H750.5H473L538.4,789z M488.1,1081.6c-30,0-54.3-24-54.3-53.7c0-29.6,24.3-53.7,54.3-53.7
	c30,0,54.3,24,54.3,53.7C542.3,1057.6,518,1081.6,488.1,1081.6z M873.8,1060.2H750.5H627.2v-23.4h123.3h123.3V1060.2z M873.8,1019.2
	H750.5H627.2v-23.4h123.3h123.3V1019.2z M1012.9,1081.6c-30,0-54.3-24-54.3-53.7c0-29.6,24.3-53.7,54.3-53.7c30,0,54.3,24,54.3,53.7
	C1067.1,1057.6,1042.8,1081.6,1012.9,1081.6z"/>
<g id="velo">
	<line class="st3" x1="749.9" y1="1027" x2="749.9" y2="1336"/>
	<path class="st4" d="M777.3,934.1c-0.7,1.3-1,2.7-0.8,4.1l8.9,63.3c1.6,12.7,2.3,25.7,2.1,38.5l-3.5,191.6
		c-0.3,13.8,10.7,25.2,24.5,25.5c0.2,0,0.3,0,0.5,0c13.6,0,24.7-10.9,25-24.5l3.5-191.6c0.3-15.2-0.6-30.6-2.5-45.7l-15.3-135.1
		L777.3,934.1z"/>
	<line class="st5" x1="682.5" y1="892.5" x2="683.9" y2="1101.6"/>
	<path class="st4" d="M904.5,832.7L827,625.1c-1-2.7-2.4-5.3-4.2-7.6l-0.8-1.1c-2.3-3.1-5.3-5.7-8.6-7.7c-4.4-2.6-9.4-4.1-14.6-4.3
		l-48.4-0.5l-48.4,0.5c-5.1,0.2-10.1,1.6-14.6,4.3c-3.3,2-6.3,4.6-8.6,7.7l-0.8,1.1c-1.8,2.3-3.2,4.9-4.2,7.6l-77.5,207.6
		c-4,10.9,1.7,22.9,12.6,26.9c2.4,0.9,4.8,1.3,7.2,1.3c8.6,0,16.6-5.3,19.7-13.8l1.9-5.1h101v22.8h23.3V842h101l1.9,5.1
		c3.1,8.5,11.2,13.8,19.7,13.8c2.4,0,4.8-0.4,7.2-1.3C902.8,855.7,908.5,843.6,904.5,832.7z M692,786.8c-0.3,8.6-1.5,17.2-3.5,25.5
		l-2.8,11.8c-0.3,1.2-1.4,2.1-2.6,2.1h-39.6L691,696.5c0.7-2,3.7-1.4,3.6,0.7L692,786.8z M817.8,826.2c-1.2,0-2.3-0.8-2.6-2.1
		l-2.8-11.8c-2-8.4-3.1-16.9-3.5-25.5l-2.6-89.6c-0.1-2.1,2.9-2.7,3.6-0.7l47.4,129.6H817.8z"/>
	<circle class="st4" cx="750.5" cy="901.4" r="25.1"/>
	<circle class="st4" cx="750.5" cy="527.2" r="53.5"/>
</g>
<g>
	<path class="st4" d="M365.7,238.5v-132h81.1v21.9h-56.9V159h38.1v21.9h-38.1v57.5H365.7z"/>
	<path class="st4" d="M464.3,238.5v-94.3h21.9v94.3H464.3z M465.9,129.1v-18.9h18.9v18.9H465.9z"/>
	<path class="st4" d="M531.8,198.9v7c0,4.3,1.2,7.8,3.7,10.7c3.2,3.7,7.1,5.6,11.8,5.6c5.9,0,10.5-2.9,13.6-8.6h22.5
		c-1.4,5.3-3.8,9.9-7.3,13.9c-7.9,9-17.5,13.5-28.8,13.5c-5.6,0-11-1.2-16.1-3.7c-5.2-2.4-9.5-5.9-13.1-10.2
		c-5.5-6.7-8.3-14.8-8.3-24.3v-22.8c0-9,2.5-16.9,7.5-23.6c7.3-9.7,17.2-14.6,29.8-14.6c6,0,11.7,1.3,17.1,4
		c5.4,2.6,9.8,6.3,13.2,10.8c3.1,4.3,5.3,9.4,6.8,15.5c0.6,2.9,1,5.5,1,7.9v18.9H531.8z M563,180.1v-2.8c0-3.7-1.2-7.2-3.6-10.3
		c-3.1-4.1-7.1-6.2-11.9-6.2c-5.7,0-10.2,2.6-13.3,7.8c-1.6,2.7-2.4,5.6-2.4,8.7v2.8H563z"/>
	<path class="st4" d="M635.6,163.6v50.3c0.1,3.8,2,5.7,5.8,5.7h13.1v18.9h-16.5c-6.4,0-12-2.1-16.5-6.3c-5.2-4.9-7.8-11-7.7-18.3
		v-50.3h-11v-18.9h11v-24.9l21.9-12.8v37.7h22v18.9H635.6z"/>
	<path class="st4" d="M674.9,210.9h21.3c1.7,5.4,7.1,8.1,16.1,8.1c7.5,0,12.5-1.8,15-5.5c1-1.4,1.5-2.7,1.5-4c0-0.9-0.5-1.8-1.4-2.7
		c-0.8-0.7-1.5-1.2-1.9-1.4l-29.3-9.3c-4.8-1.5-8.9-4.2-12.3-7.8c-4.5-4.8-6.8-10.7-6.8-17.5c0-8.6,3.4-15.8,10.2-21.6
		c6.3-5.2,14.7-7.7,25.3-7.7c11,0,19.3,2.5,24.9,7.6c6.6,6,10,13.2,10.1,21.7h-21.2c-0.4-2.5-1.7-4.4-3.9-5.6
		c-2.2-1.2-5.4-1.8-9.7-1.8c-9.3,0-13.9,2.3-13.9,7c0,1.2,0.4,2.4,1.3,3.5c0.9,1.1,1.9,1.8,3.1,2.2l28.4,9c4.8,1.5,8.9,4.3,12.3,8.4
		c4.1,4.8,6.1,10.4,6.1,16.8c0,9.2-3.9,16.8-11.7,22.6c-7.1,5.4-15.8,8-26,8c-10.8,0-20-2.9-27.5-8.6c-6.6-5.1-10.1-11.3-10.2-18.6
		C674.9,213.2,674.9,212.2,674.9,210.9z"/>
	<path class="st4" d="M799,219.6h47.7v18.9h-75.4v-18.9l45.7-56.6h-44v-18.9h71.4v18.9L799,219.6z"/>
	<path class="st4" d="M867.7,202.8v-23c0-9.2,2.8-17.2,8.5-24.1c7.7-9.4,17.4-14.1,29.1-14.1c8.9,0,16.8,2.8,23.8,8.3
		c6.1,4.9,10.3,11.4,12.6,19.5c1,3.6,1.5,7.1,1.5,10.3v23c0,7.9-2.2,15.1-6.7,21.8c-3.4,4.8-7.6,8.7-12.9,11.7
		c-5.8,3.2-12,4.8-18.5,4.8c-9,0-17-2.9-24-8.8c-5.5-4.6-9.4-10.9-11.7-18.7C868.3,209.7,867.7,206.1,867.7,202.8z M921.1,205.4V177
		c0-4.4-1.4-8.2-4.3-11.3c-3.2-3.5-7.1-5.2-11.5-5.2c-5.3,0-9.6,2.3-12.9,6.8c-1.9,2.6-2.9,5.9-2.9,9.8v28.4c0,4.2,1.1,7.7,3.4,10.5
		c3.4,4.2,7.5,6.3,12.6,6.3c5.8,0,10.2-2.5,13.2-7.6C920.4,211.9,921.1,208.8,921.1,205.4z"/>
	<path class="st4" d="M966.6,238.5v-94.3h21.9v6.4c7.2-6,14.5-9,21.8-9c10.1,0,18.3,4.1,24.8,12.3c4.5,5.7,6.8,12.3,6.8,19.6v65
		H1020V177c0-4.4-1.3-8.1-4-11.2c-3-3.5-7-5.3-11.8-5.3c-6.1,0-10.6,2.5-13.6,7.4c-1.4,2.3-2.1,5.4-2.1,9.1v61.5H966.6z"/>
	<path class="st4" d="M1085.6,198.9v7c0,4.3,1.2,7.8,3.7,10.7c3.2,3.7,7.1,5.6,11.8,5.6c5.9,0,10.5-2.9,13.6-8.6h22.5
		c-1.4,5.3-3.8,9.9-7.3,13.9c-7.9,9-17.5,13.5-28.8,13.5c-5.6,0-11-1.2-16.1-3.7c-5.2-2.4-9.5-5.9-13.1-10.2
		c-5.5-6.7-8.3-14.8-8.3-24.3v-22.8c0-9,2.5-16.9,7.5-23.6c7.3-9.7,17.2-14.6,29.8-14.6c6,0,11.7,1.3,17.1,4
		c5.4,2.6,9.8,6.3,13.2,10.8c3.1,4.3,5.3,9.4,6.8,15.5c0.6,2.9,1,5.5,1,7.9v18.9H1085.6z M1116.9,180.1v-2.8c0-3.7-1.2-7.2-3.6-10.3
		c-3.1-4.1-7.1-6.2-11.9-6.2c-5.7,0-10.2,2.6-13.3,7.8c-1.6,2.7-2.4,5.6-2.4,8.7v2.8H1116.9z"/>
</g>
</svg>
