<?xml version="1.0" encoding="utf-8"?>
<!-- Generator: Adobe Illustrator 28.0.0, SVG Export Plug-In . SVG Version: 6.00 Build 0)  -->
<svg version="1.1" id="Calque_1" xmlns="http://www.w3.org/2000/svg" xmlns:xlink="http://www.w3.org/1999/xlink" x="0px" y="0px"
	 viewBox="0 0 1449.83 1449.83" style="enable-background:new 0 0 1449.83 1449.83;" xml:space="preserve">
<style type="text/css">
	.st0{fill:#FFFFFF;}
	.st1{fill:none;stroke:#000000;stroke-width:28;stroke-miterlimit:10;}
	.st2{fill:#005B8C;}
</style>
<path id="fond" class="st0" d="M1228.91,1401.91h-951c-27.61,0-50-22.39-50-50v-1239c0-27.61,22.39-50,50-50h951
	c27.61,0,50,22.39,50,50v1239C1278.91,1379.53,1256.53,1401.91,1228.91,1401.91z"/>
<path id="contour" class="st1" d="M1224.91,1362.91h-943c-8.28,0-15-6.72-15-15v-1231c0-8.28,6.72-15,15-15h943
	c8.28,0,15,6.72,15,15v1231C1239.91,1356.2,1233.2,1362.91,1224.91,1362.91z"/>
<g>
	<path d="M506.43,332.77h93.28v33.72H460.68v-33.72l89.27-135.32h-85.11v-33.72H595.1v33.72L506.43,332.77z"/>
	<path d="M624.96,311.67v-35.35c0-14.06,4.36-26.39,13.07-36.99c11.78-14.46,26.69-21.69,44.71-21.69
		c13.67,0,25.85,4.26,36.54,12.77c9.41,7.53,15.84,17.53,19.31,30c1.49,5.55,2.23,10.84,2.23,15.89v35.35
		c0,12.08-3.42,23.22-10.25,33.42c-5.15,7.43-11.73,13.42-19.75,17.97c-8.91,4.95-18.37,7.43-28.37,7.43
		c-13.86,0-26.14-4.5-36.84-13.52c-8.52-7.13-14.51-16.69-17.97-28.67C625.85,322.27,624.96,316.72,624.96,311.67z M707.1,315.68
		v-43.67c0-6.73-2.18-12.53-6.54-17.38c-4.95-5.35-10.84-8.02-17.68-8.02c-8.12,0-14.71,3.47-19.76,10.4
		c-2.97,4.06-4.46,9.06-4.46,15v43.67c0,6.44,1.73,11.83,5.2,16.19c5.15,6.44,11.59,9.65,19.31,9.65c8.91,0,15.69-3.91,20.35-11.73
		C705.91,325.64,707.1,320.93,707.1,315.68z"/>
	<path d="M779.29,366.48V221.66h33.72v9.8c11.09-9.21,22.28-13.81,33.57-13.81c15.45,0,28.17,6.29,38.17,18.86
		c6.93,8.81,10.4,18.86,10.4,30.15v99.82h-33.72v-94.47c0-6.73-2.03-12.48-6.09-17.23c-4.66-5.44-10.69-8.17-18.12-8.17
		c-9.31,0-16.29,3.81-20.94,11.44c-2.18,3.56-3.27,8.22-3.27,13.96v94.47H779.29z"/>
	<path d="M964.67,305.73v10.69c0,6.54,1.88,12.03,5.64,16.49c4.85,5.74,10.89,8.61,18.12,8.61c9.11,0,16.09-4.4,20.94-13.22h34.61
		c-2.08,8.12-5.79,15.25-11.14,21.39c-12.08,13.86-26.84,20.8-44.26,20.8c-8.62,0-16.88-1.88-24.81-5.64
		c-7.92-3.76-14.61-9.01-20.05-15.75c-8.52-10.3-12.77-22.73-12.77-37.28v-35.05c0-13.86,3.86-25.94,11.59-36.24
		c11.19-14.95,26.44-22.43,45.75-22.43c9.21,0,17.97,2.03,26.29,6.09c8.32,4.06,15.1,9.61,20.35,16.64
		c4.75,6.54,8.22,14.46,10.4,23.77c0.99,4.46,1.49,8.52,1.49,12.18v28.96H964.67z M1012.64,276.77v-4.31
		c0-5.74-1.83-11.04-5.5-15.89c-4.75-6.34-10.84-9.51-18.27-9.51c-8.81,0-15.65,4.01-20.5,12.03c-2.48,4.16-3.71,8.62-3.71,13.37
		v4.31H1012.64z"/>
</g>
<g id="pietons_00000028314848407952819400000000946647346675201429_">
	
		<rect id="fond_00000028300265166867647190000009214666926157206938_" x="430.91" y="409.91" class="st2" width="645" height="645"/>
	<path id="pietons" class="st0" d="M640.91,581.91c-16.27,0.27-26.66,5.58-32,9c-25.39,16.28-29.84,49.76-32,66
		c-1.31,9.88-1.28,18.21-1,24c0.65,19.38,2.45,40.5,6,63c1.48,9.36,1,19,5,33c0.06,0.24,0.5,1.17,1.24,2.68
		c8.32,16.79,33.76,8.01,29.99-10.34c-0.01-0.06-0.02-0.11-0.03-0.15c-1.92-9.33-3.28-23.24-4.2-29.19c-2.87-18.58-4.38-36.01-5-52
		c-0.23-10.25,0.36-18.78,1-25c1.44-13.92,2.44-22.68,8-32c3.37-5.65,7.26-9.58,10-12v326.35c0,1.1,0.04,2.19,0.13,3.29l0.21,2.69
		c2.39,30.44,47,30.45,49.4,0.01l0.13-1.69c0.09-1.1,0.13-2.2,0.13-3.3l0-184.94c0-0.92,0.23-1.83,0.67-2.64l0.13-0.24
		c2.24-4.11,8.16-4.11,10.4,0.01l0.06,0.11c0.48,0.88,0.73,1.87,0.73,2.87v161.34l0,0c1.57,32.23,49.13,32.37,50.89,0.15l0.11-2.02
		V647.52c0-2.93,4.12-3.57,5-0.77c1.3,4.11,3,8.17,4,11.17c2.51,7.54,8.54,20.28,13,53c1.6,11.71,3.24,26.97,4,45
		c0.1,2.28,1.02,7.35,5,11c3.69,3.38,8.43,3.92,11,4c0.68,0.03,1.34,0.02,2,0c9.88-0.37,17.96-6.24,23.72-12.14
		c1.56-1.61,4.28-0.49,4.28,1.75l0,173.39l0,0c2.34,18.09,28.49,18.2,30.98,0.13l0.02-0.13l0-87.47c0-0.99,0.36-1.95,1.01-2.69
		l0.1-0.12c1.68-1.93,4.68-1.92,6.33,0.02l0.04,0.05c0.66,0.77,1.01,1.72,1.01,2.72c0.01,13.64,0.01,113.48,0.01,113.48l0,0
		c2.27,18.52,29.09,18.6,31.47,0.1l0.13-1V806.84c0-1.42,1.92-1.85,2.52-0.56l14.38,31.47c0.65,1.42,1.67,2.65,2.95,3.55l0.52,0.37
		c10.7,7.53,25.51,0.39,26.28-12.68l0.12-1.98c0.08-1.37-0.16-2.74-0.7-4l-39.05-90.84c-3.72-8.64-12.22-14.24-21.63-14.24h-46.03
		c-4.92,0-9.77,1.09-14.21,3.2l-8.76,4.15c-1.69,0.8-3.66-0.31-3.85-2.17c-2.46-24.62-7.41-44.39-11.64-58.17
		c-9.68-31.55-21.14-67.19-51-80l-0.11-0.05c-4.55-1.95-9.46-2.95-14.41-2.95H640.91z"/>
	<circle id="tete_a" class="st0" cx="684.41" cy="519.91" r="47"/>
	<circle id="tete_e" class="st0" cx="847.91" cy="671.91" r="37"/>
</g>
</svg>
