<?xml version="1.0" encoding="utf-8"?>
<!-- Generator: Adobe Illustrator 28.0.0, SVG Export Plug-In . SVG Version: 6.00 Build 0)  -->
<svg version="1.1" id="Calque_1" xmlns="http://www.w3.org/2000/svg" xmlns:xlink="http://www.w3.org/1999/xlink" x="0px" y="0px"
	 viewBox="0 0 1449.83 1449.83" style="enable-background:new 0 0 1449.83 1449.83;" xml:space="preserve">
<style type="text/css">
	.st0{fill:#005B8C;}
	.st1{fill:none;stroke:#FFFFFF;stroke-width:20;stroke-miterlimit:10;}
	.st2{fill:#FFFFFF;}
	.st3{fill:#BB1E10;}
</style>
<path id="fond" class="st0" d="M1340.91,1139.1h-1232c-38.66,0-70-31.34-70-70V378.86c0-38.66,31.34-70,70-70h1232
	c38.66,0,70,31.34,70,70v690.24C1410.91,1107.76,1379.57,1139.1,1340.91,1139.1z"/>
<path id="contour" class="st1" d="M1338.91,1112.1h-1228c-24.85,0-45-20.15-45-45V380.86c0-24.85,20.15-45,45-45h1228
	c24.85,0,45,20.15,45,45v686.24C1383.91,1091.95,1363.77,1112.1,1338.91,1112.1z"/>
<g id="maison_00000090976150391446820380000011876126688612956850_">
	<rect id="fenetre_2" x="1104.91" y="514.91" class="st2" width="73" height="97"/>
	<rect id="fenetre_1" x="1003.91" y="514.91" class="st2" width="73" height="97"/>
	<path id="maison" class="st2" d="M1090.91,396.91l-54.05,34.83l0.05-16.83l-71.03,0.03l0.03,62.51l-114,73.46h89l1,238h149h149
		l1-238h89L1090.91,396.91z M1215.91,758.91h-87.48v-126l-37.52,0h-37.52v126h-87.48v-231l125-88.09l125,88.09V758.91z"/>
</g>
<path id="trottoir" class="st2" d="M762.91,615.91h28.21c0.28,10.72,1.37,27.75,5.79,48c26.64,122.05,138.19,196.3,246,266
	c35.28,22.81,86.43,53.17,152,83c0,21.97,0,43.94,0,65.91c-46.67-20.52-84.19-40.57-111-55.91c-44.62-25.53-110.85-63.95-181-130
	c-42.6-40.11-65.98-70.95-72-79c-25.79-34.52-51.37-69.51-63-121C760.68,660.9,761.34,633.52,762.91,615.91z"/>
<path id="voiture" class="st2" d="M712.5,543.13c-0.05-7.27-2.42-14.31-6.72-20.17c-2.63-3.58-5.49-7.77-8.37-12.55
	c-8.12-13.47-12.09-24.38-15-32c-4.84-12.65-12.37-30.84-23.88-53.85c-0.74-1.48-2.71-4.89-6.8-7.42c-2.86-1.77-6.19-2.76-9.68-2.77
	c-36.04-0.15-72.09-0.3-108.13-0.45c-36.04,0.15-72.09,0.3-108.13,0.45c-3.49,0.01-6.82,1.01-9.68,2.77
	c-4.09,2.53-6.06,5.95-6.8,7.42c-11.51,23.01-19.05,41.21-23.88,53.85c-2.91,7.62-6.88,18.53-15,32c-2.88,4.78-5.74,8.97-8.37,12.55
	c-4.3,5.86-6.67,12.91-6.72,20.17l-0.42,58.6c0,10.04,8.14,18.17,18.17,18.17h2.83v38.83c0,6.72,5.45,12.17,12.17,12.17h25.15
	c6.72,0,12.17-5.45,12.17-12.17v-38.83h108.5h108.5v38.83c0,6.72,5.45,12.17,12.17,12.17h25.15c6.72,0,12.17-5.45,12.17-12.17
	v-38.83h2.83c10.04,0,18.17-8.14,18.17-18.17L712.5,543.13z M426.41,434.41l107.5,0.33l107.5-0.33l33.15,76.24H533.91H393.26
	L426.41,434.41z M400.91,584.41c-15.19,0-27.5-12.31-27.5-27.5c0-15.19,12.31-27.5,27.5-27.5c15.19,0,27.5,12.31,27.5,27.5
	C428.41,572.1,416.1,584.41,400.91,584.41z M596.41,573.41h-62.5h-62.5v-12h62.5h62.5V573.41z M596.41,552.41h-62.5h-62.5v-12h62.5
	h62.5V552.41z M666.91,584.41c-15.19,0-27.5-12.31-27.5-27.5c0-15.19,12.31-27.5,27.5-27.5c15.19,0,27.5,12.31,27.5,27.5
	C694.41,572.1,682.1,584.41,666.91,584.41z"/>
<g id="adulte">
	<path class="st2" d="M348.91,791.91c-2.2-4.02-5.51-6.07-7-7c-9.25-5.74-38.47-24.75-50.31-33.06c-1.69-1.19-2.69-3.13-2.69-5.19
		l0-83.36c0-3.54-0.97-7.01-2.84-10.01c-1.47-2.37-3.47-4.95-6.16-7.37c-4.53-4.08-9.49-6.32-13.84-7.55
		c-5.67-1.6-11.65-1.68-17.44-0.58c-6.46,1.23-14.29,3.77-21.72,9.12c-7.63,5.5-12.26,12.11-23,33c-5.59,10.87-44.62,87.15-52,103
		c0,0-14.8,31.06-8,46c1.49,3.26,4,5,4,5c0,0,2.9,2,7,2c9.24,0,19-19,19-19c9.23-17.47,22.17-41.41,37.91-71.06
		c0.21-0.39,0.41-0.77,0.62-1.16c0.38-0.72,1.47-0.45,1.47,0.36l-0.13,123.85c-0.47,1.25-40.14,108.38-42.87,121.02
		c-2.4,11.13-3.68,26.71,9.04,32.99c4.2,2.07,9.26,1.77,13.09-0.92c10.39-7.28,15.86-25.08,15.86-25.08s38.03-119.51,41.58-130.68
		c0.07-0.23,0.42-0.18,0.42,0.07v155.78c0,6.43,3.29,12.49,8.84,15.74c0.05,0.03,0.11,0.06,0.16,0.09c4.58,2.63,8.91,2.97,11,3
		c1.2,0.12,6.26,0.49,11-3c0.28-0.2,0.54-0.41,0.79-0.62c3.4-2.86,5.21-7.2,5.21-11.65V794.73c0-0.86,0.88-1.44,1.67-1.1
		l40.33,17.28c4.85,2.69,10.6,2.73,15,0c4.18-2.59,5.61-6.73,6-8C351.13,801.36,351.56,796.75,348.91,791.91z"/>
	<circle class="st2" cx="261.91" cy="580.41" r="48"/>
</g>
<circle id="ballon" class="st2" cx="495.91" cy="1002.91" r="44"/>
<g id="enfant">
	<path class="st2" d="M796.21,946.37c-4.69-5.46-12.3-5.46-13.3-5.46h-36.55c-2.12,0-4.07-1.17-5.07-3.05l-16.38-30.82v-87.83
		c0-0.41,0.12-0.82,0.35-1.17c0.89-1.31,1.88-1.78,3.65,0.87c10.95,18.21,22.03,34.97,32.98,53.17c0.79,1.25,2.35,3.32,5.02,4.83
		c5.38,3.04,10.93,1.35,12,1c0.79-0.32,1.96-0.91,3-2c0.8-0.84,3.17-3.7,2-14c-0.69-6.07-2-10-2-10c-6.26-18.8-17-34-17-34
		c-6.39-9.04-14.26-20.18-28-29c-7.41-4.76-14.18-7.33-16-8c-6.12-2.26-11.88-3.53-16.95-4.23c-6.62-0.91-13.35-0.76-19.9,0.52
		c-3.09,0.61-6.52,1.47-10.15,2.71c-10.66,3.64-17.01,8.45-33,20c-5.65,4.08-15.33,11.05-28,20c-1.13,0.91-6.75,5.6-7,13
		c-0.01,0.38-0.01,0.74,0,1.1c0.13,3.19,1.77,6.16,4.41,7.95c0.48,0.33,1.01,0.65,1.58,0.95c3.34,1.76,6.35,1.93,8,2
		c4.46,0.19,7.99-1.08,10-2c11.59-8.05,23.19-16.1,34.78-24.15c0.51-0.36,1.22,0.01,1.22,0.64v212.52c0,0-1,14,15,14s15-13,15-13
		V921.38c0-0.81,0.66-1.47,1.47-1.47h1.67c0.53,0,1.02,0.28,1.28,0.75c2.93,5.25,20.49,36.66,26.78,46.59
		c1.05,1.66,2.88,2.66,4.84,2.66h53.96c4,0,7,1,12-4c1.96-2.59,1.98-5.57,2-8C799.93,955.86,799.93,950.7,796.21,946.37z"/>
	<circle class="st2" cx="687.41" cy="732.41" r="36"/>
</g>
<g id="barre">
	<path class="st3" d="M110.91,1105.1c-20.95,0-38-17.05-38-38v-16.41l1226-707.83h40c20.95,0,38,17.05,38,38v16.27L150.68,1105.1
		H110.91z"/>
	<path class="st2" d="M1338.91,345.86c19.3,0,35,15.7,35,35v14.54L149.87,1102.1h-38.96c-19.3,0-35-15.7-35-35v-14.68l1223.8-706.56
		H1338.91 M1338.91,339.86h-39.2h-1.61l-1.39,0.8L72.91,1047.23l-3,1.73v3.46v14.68c0,22.61,18.39,41,41,41h38.96h1.61l1.39-0.8
		l1224.04-706.7l3-1.73v-3.46v-14.54C1379.91,358.26,1361.52,339.86,1338.91,339.86L1338.91,339.86z"/>
</g>
</svg>
