<?xml version="1.0" encoding="utf-8"?>
<!-- Generator: Adobe Illustrator 28.0.0, SVG Export Plug-In . SVG Version: 6.00 Build 0)  -->
<svg version="1.1" id="Calque_1" xmlns="http://www.w3.org/2000/svg" xmlns:xlink="http://www.w3.org/1999/xlink" x="0px" y="0px"
	 viewBox="0 0 1500 1500" style="enable-background:new 0 0 1500 1500;" xml:space="preserve">
<style type="text/css">
	.st0{fill:#005B8C;}
	.st1{fill:none;stroke:#FFFFFF;stroke-width:23;stroke-miterlimit:10;}
	.st2{fill:#BB1E10;}
	.st3{fill:none;stroke:#FFFFFF;stroke-width:32;stroke-linecap:round;stroke-miterlimit:10;}
	.st4{fill:#FFFFFF;}
	.st5{fill:none;stroke:#FFFFFF;stroke-width:53;stroke-linecap:round;stroke-miterlimit:10;}
	.st6{font-family:'SnvD-Regu';}
	.st7{font-size:198px;}
	.st8{letter-spacing:-1;}
</style>
<path id="fond" class="st0" d="M1159.5,1500h-818c-50.3,0-91-40.7-91-91V91c0-50.3,40.7-91,91-91h818c50.3,0,91,40.7,91,91v1318
	C1250.5,1459.3,1209.7,1500,1159.5,1500z"/>
<path id="contour" class="st1" d="M1146.5,1462h-792c-36.5,0-66-29.5-66-66V104c0-36.5,29.5-66,66-66h792c36.5,0,66,29.5,66,66v1292
	C1212.5,1432.5,1182.9,1462,1146.5,1462z"/>
<path id="voiture" class="st2" d="M1102.8,1001.1c-0.1-14.2-4.8-27.9-13.3-39.4c-5.2-7-10.8-15.2-16.5-24.5
	c-16-26.3-23.8-47.6-29.6-62.4c-9.5-24.7-24.4-60.2-47.1-105.1c-1.5-2.9-5.4-9.5-13.4-14.5c-5.6-3.4-12.2-5.4-19.1-5.4
	c-71.1-0.3-142.2-0.6-213.3-0.9c-71.1,0.3-142.2,0.6-213.3,0.9c-6.9,0-13.5,2-19.1,5.4c-8.1,4.9-12,11.6-13.4,14.5
	c-22.7,44.9-37.6,80.4-47.1,105.1c-5.7,14.9-13.6,36.2-29.6,62.4c-5.7,9.3-11.3,17.5-16.5,24.5c-8.5,11.4-13.1,25.2-13.3,39.4
	l-0.8,114.3c0,19.6,16.1,35.5,35.9,35.5h5.6v75.8c0,13.1,10.8,23.8,24,23.8h49.6c13.3,0,24-10.6,24-23.8v-75.8h214.1h214.1v75.8
	c0,13.1,10.8,23.8,24,23.8h49.6c13.3,0,24-10.6,24-23.8v-75.8h5.6c19.8,0,35.9-15.9,35.9-35.5L1102.8,1001.1z M538.4,789l212.1,0.6
	l212.1-0.6l65.4,148.8H750.5H473L538.4,789z M488.1,1081.6c-30,0-54.3-24-54.3-53.7c0-29.6,24.3-53.7,54.3-53.7
	c30,0,54.3,24,54.3,53.7C542.3,1057.6,518,1081.6,488.1,1081.6z M873.8,1060.2H750.5H627.2v-23.4h123.3h123.3V1060.2z M873.8,1019.2
	H750.5H627.2v-23.4h123.3h123.3V1019.2z M1012.9,1081.6c-30,0-54.3-24-54.3-53.7c0-29.6,24.3-53.7,54.3-53.7c30,0,54.3,24,54.3,53.7
	C1067.1,1057.6,1042.8,1081.6,1012.9,1081.6z"/>
<g id="velo">
	<line class="st3" x1="749.9" y1="1027" x2="749.9" y2="1336"/>
	<path class="st4" d="M777.3,934.1c-0.7,1.3-1,2.7-0.8,4.1l8.9,63.3c1.6,12.7,2.3,25.7,2.1,38.5l-3.5,191.6
		c-0.3,13.8,10.7,25.2,24.5,25.5c0.2,0,0.3,0,0.5,0c13.6,0,24.7-10.9,25-24.5l3.5-191.6c0.3-15.2-0.6-30.6-2.5-45.7l-15.3-135.1
		L777.3,934.1z"/>
	<line class="st5" x1="682.5" y1="892.5" x2="683.9" y2="1101.6"/>
	<path class="st4" d="M904.5,832.7L827,625.1c-1-2.7-2.4-5.3-4.2-7.6l-0.8-1.1c-2.3-3.1-5.3-5.7-8.6-7.7c-4.4-2.6-9.4-4.1-14.6-4.3
		l-48.4-0.5l-48.4,0.5c-5.1,0.2-10.1,1.6-14.6,4.3c-3.3,2-6.3,4.6-8.6,7.7l-0.8,1.1c-1.8,2.3-3.2,4.9-4.2,7.6l-77.5,207.6
		c-4,10.9,1.7,22.9,12.6,26.9c2.4,0.9,4.8,1.3,7.2,1.3c8.6,0,16.6-5.3,19.7-13.8l1.9-5.1h101v22.8h23.3V842h101l1.9,5.1
		c3.1,8.5,11.2,13.8,19.7,13.8c2.4,0,4.8-0.4,7.2-1.3C902.8,855.7,908.5,843.6,904.5,832.7z M692,786.8c-0.3,8.6-1.5,17.2-3.5,25.5
		l-2.8,11.8c-0.3,1.2-1.4,2.1-2.6,2.1h-39.6L691,696.5c0.7-2,3.7-1.4,3.6,0.7L692,786.8z M817.8,826.2c-1.2,0-2.3-0.8-2.6-2.1
		l-2.8-11.8c-2-8.4-3.1-16.9-3.5-25.5l-2.6-89.6c-0.1-2.1,2.9-2.7,3.6-0.7l47.4,129.6H817.8z"/>
	<circle class="st4" cx="750.5" cy="901.4" r="25.1"/>
	<circle class="st4" cx="750.5" cy="527.2" r="53.5"/>
</g>
<text transform="matrix(1 0 0 1 553.8964 238.4626)"><tspan x="0" y="0" class="st4 st6 st7 st8">Zone</tspan><tspan x="-141.8" y="167" class="st4 st6 st7 st8">cyclable</tspan></text>
</svg>
